<svg width="153" height="58" viewBox="0 0 153 58" fill="none" xmlns="http://www.w3.org/2000/svg">
<rect width="153" height="58" rx="12" fill="#313131"/>
<path d="M33.55 37.28C32.57 38.23 31.5 38.08 30.47 37.63C29.38 37.17 28.38 37.15 27.23 37.63C25.79 38.25 25.03 38.07 24.17 37.28C19.29 32.25 20.01 24.59 25.55 24.31C26.9 24.38 27.84 25.05 28.63 25.11C29.81 24.87 30.94 24.18 32.2 24.27C33.71 24.39 34.85 24.99 35.6 26.07C32.48 27.94 33.22 32.05 36.08 33.2C35.51 34.7 34.77 36.19 33.54 37.29L33.55 37.28ZM28.53 24.25C28.38 22.02 30.19 20.18 32.27 20C32.56 22.58 29.93 24.5 28.53 24.25Z" fill="white"/>
<path d="M62.3174 36L60.7354 31.9219H55.585L54.0117 36H52.5L57.5273 23.0977H58.8721L63.8643 36H62.3174ZM60.2871 30.5947L58.7842 26.543C58.749 26.4375 58.6904 26.2646 58.6084 26.0244C58.5322 25.7842 58.4531 25.5352 58.3711 25.2773C58.2891 25.0195 58.2217 24.8115 58.1689 24.6533C58.1104 24.8936 58.0459 25.1338 57.9756 25.374C57.9111 25.6084 57.8467 25.8281 57.7822 26.0332C57.7178 26.2324 57.6621 26.4023 57.6152 26.543L56.0859 30.5947H60.2871ZM69.9551 26.1914C71.1562 26.1914 72.1143 26.6045 72.8291 27.4307C73.5439 28.2568 73.9014 29.499 73.9014 31.1572C73.9014 32.2529 73.7373 33.1729 73.4092 33.917C73.0811 34.6611 72.6182 35.2236 72.0205 35.6045C71.4287 35.9854 70.7285 36.1758 69.9199 36.1758C69.4102 36.1758 68.9619 36.1084 68.5752 35.9736C68.1885 35.8389 67.8574 35.6572 67.582 35.4287C67.3066 35.2002 67.0781 34.9512 66.8965 34.6816H66.791C66.8086 34.9102 66.8291 35.1855 66.8525 35.5078C66.8818 35.8301 66.8965 36.1113 66.8965 36.3516V40.3066H65.4287V26.3672H66.6328L66.8262 27.791H66.8965C67.084 27.498 67.3125 27.2314 67.582 26.9912C67.8516 26.7451 68.1797 26.5518 68.5664 26.4111C68.959 26.2646 69.4219 26.1914 69.9551 26.1914ZM69.7002 27.4219C69.0322 27.4219 68.4932 27.5508 68.083 27.8086C67.6787 28.0664 67.3828 28.4531 67.1953 28.9688C67.0078 29.4785 66.9082 30.1201 66.8965 30.8936V31.1748C66.8965 31.9893 66.9844 32.6777 67.1602 33.2402C67.3418 33.8027 67.6377 34.2305 68.0479 34.5234C68.4639 34.8164 69.0205 34.9629 69.7178 34.9629C70.3154 34.9629 70.8135 34.8018 71.2119 34.4795C71.6104 34.1572 71.9062 33.709 72.0996 33.1348C72.2988 32.5547 72.3984 31.8896 72.3984 31.1396C72.3984 30.0029 72.1758 29.1006 71.7305 28.4326C71.291 27.7588 70.6143 27.4219 69.7002 27.4219ZM80.9766 26.1914C82.1777 26.1914 83.1357 26.6045 83.8506 27.4307C84.5654 28.2568 84.9229 29.499 84.9229 31.1572C84.9229 32.2529 84.7588 33.1729 84.4307 33.917C84.1025 34.6611 83.6396 35.2236 83.042 35.6045C82.4502 35.9854 81.75 36.1758 80.9414 36.1758C80.4316 36.1758 79.9834 36.1084 79.5967 35.9736C79.21 35.8389 78.8789 35.6572 78.6035 35.4287C78.3281 35.2002 78.0996 34.9512 77.918 34.6816H77.8125C77.8301 34.9102 77.8506 35.1855 77.874 35.5078C77.9033 35.8301 77.918 36.1113 77.918 36.3516V40.3066H76.4502V26.3672H77.6543L77.8477 27.791H77.918C78.1055 27.498 78.334 27.2314 78.6035 26.9912C78.873 26.7451 79.2012 26.5518 79.5879 26.4111C79.9805 26.2646 80.4434 26.1914 80.9766 26.1914ZM80.7217 27.4219C80.0537 27.4219 79.5146 27.5508 79.1045 27.8086C78.7002 28.0664 78.4043 28.4531 78.2168 28.9688C78.0293 29.4785 77.9297 30.1201 77.918 30.8936V31.1748C77.918 31.9893 78.0059 32.6777 78.1816 33.2402C78.3633 33.8027 78.6592 34.2305 79.0693 34.5234C79.4854 34.8164 80.042 34.9629 80.7393 34.9629C81.3369 34.9629 81.835 34.8018 82.2334 34.4795C82.6318 34.1572 82.9277 33.709 83.1211 33.1348C83.3203 32.5547 83.4199 31.8896 83.4199 31.1396C83.4199 30.0029 83.1973 29.1006 82.752 28.4326C82.3125 27.7588 81.6357 27.4219 80.7217 27.4219ZM98.3789 33.3633C98.3789 33.9785 98.2236 34.4971 97.9131 34.9189C97.6084 35.335 97.1689 35.6484 96.5947 35.8594C96.0264 36.0703 95.3467 36.1758 94.5557 36.1758C93.8818 36.1758 93.2988 36.123 92.8066 36.0176C92.3145 35.9121 91.8838 35.7627 91.5146 35.5693V34.2246C91.9072 34.418 92.376 34.5938 92.9209 34.752C93.4658 34.9102 94.0225 34.9893 94.5908 34.9893C95.4229 34.9893 96.0264 34.8545 96.4014 34.585C96.7764 34.3154 96.9639 33.9492 96.9639 33.4863C96.9639 33.2227 96.8877 32.9912 96.7354 32.792C96.5889 32.5869 96.3398 32.3906 95.9883 32.2031C95.6367 32.0098 95.1504 31.7988 94.5293 31.5703C93.9141 31.3359 93.3809 31.1045 92.9297 30.876C92.4844 30.6416 92.1387 30.3574 91.8926 30.0234C91.6523 29.6895 91.5322 29.2559 91.5322 28.7227C91.5322 27.9082 91.8604 27.2842 92.5166 26.8506C93.1787 26.4111 94.0459 26.1914 95.1182 26.1914C95.6982 26.1914 96.2402 26.25 96.7441 26.3672C97.2539 26.4785 97.7285 26.6309 98.168 26.8242L97.6758 27.9932C97.2773 27.8232 96.8525 27.6797 96.4014 27.5625C95.9502 27.4453 95.4902 27.3867 95.0215 27.3867C94.3477 27.3867 93.8291 27.498 93.4658 27.7207C93.1084 27.9434 92.9297 28.248 92.9297 28.6348C92.9297 28.9336 93.0117 29.1797 93.1758 29.373C93.3457 29.5664 93.6152 29.748 93.9844 29.918C94.3535 30.0879 94.8398 30.2871 95.4434 30.5156C96.0469 30.7383 96.5684 30.9697 97.0078 31.21C97.4473 31.4443 97.7842 31.7314 98.0186 32.0713C98.2588 32.4053 98.3789 32.8359 98.3789 33.3633ZM103.837 34.9805C104.077 34.9805 104.323 34.96 104.575 34.9189C104.827 34.8779 105.032 34.8281 105.19 34.7695V35.9033C105.021 35.9795 104.783 36.0439 104.479 36.0967C104.18 36.1494 103.887 36.1758 103.6 36.1758C103.09 36.1758 102.627 36.0879 102.211 35.9121C101.795 35.7305 101.461 35.4258 101.209 34.998C100.963 34.5703 100.84 33.9785 100.84 33.2227V27.5098H99.4688V26.7979L100.849 26.2266L101.429 24.1348H102.308V26.3672H105.129V27.5098H102.308V33.1787C102.308 33.7822 102.445 34.2334 102.721 34.5322C103.002 34.8311 103.374 34.9805 103.837 34.9805ZM115.447 31.166C115.447 31.957 115.345 32.6631 115.14 33.2842C114.935 33.9053 114.639 34.4297 114.252 34.8574C113.865 35.2852 113.396 35.6133 112.846 35.8418C112.301 36.0645 111.683 36.1758 110.991 36.1758C110.347 36.1758 109.755 36.0645 109.216 35.8418C108.683 35.6133 108.22 35.2852 107.827 34.8574C107.44 34.4297 107.139 33.9053 106.922 33.2842C106.711 32.6631 106.605 31.957 106.605 31.166C106.605 30.1113 106.784 29.2148 107.142 28.4766C107.499 27.7324 108.009 27.167 108.671 26.7803C109.339 26.3877 110.133 26.1914 111.053 26.1914C111.932 26.1914 112.699 26.3877 113.355 26.7803C114.018 27.1729 114.53 27.7412 114.894 28.4854C115.263 29.2236 115.447 30.1172 115.447 31.166ZM108.117 31.166C108.117 31.9395 108.22 32.6104 108.425 33.1787C108.63 33.7471 108.946 34.1865 109.374 34.4971C109.802 34.8076 110.353 34.9629 111.026 34.9629C111.694 34.9629 112.242 34.8076 112.67 34.4971C113.104 34.1865 113.423 33.7471 113.628 33.1787C113.833 32.6104 113.936 31.9395 113.936 31.166C113.936 30.3984 113.833 29.7363 113.628 29.1797C113.423 28.6172 113.106 28.1836 112.679 27.8789C112.251 27.5742 111.697 27.4219 111.018 27.4219C110.016 27.4219 109.28 27.7529 108.812 28.415C108.349 29.0771 108.117 29.9941 108.117 31.166ZM122.347 26.1914C122.54 26.1914 122.742 26.2031 122.953 26.2266C123.164 26.2441 123.352 26.2705 123.516 26.3057L123.331 27.6592C123.173 27.6182 122.997 27.5859 122.804 27.5625C122.61 27.5391 122.429 27.5273 122.259 27.5273C121.872 27.5273 121.506 27.6064 121.16 27.7646C120.82 27.917 120.521 28.1396 120.264 28.4326C120.006 28.7197 119.804 29.0684 119.657 29.4785C119.511 29.8828 119.438 30.334 119.438 30.832V36H117.97V26.3672H119.183L119.341 28.1426H119.402C119.602 27.7852 119.842 27.46 120.123 27.167C120.404 26.8682 120.729 26.6309 121.099 26.4551C121.474 26.2793 121.89 26.1914 122.347 26.1914ZM129.044 26.1914C129.864 26.1914 130.567 26.373 131.153 26.7363C131.739 27.0996 132.188 27.6094 132.498 28.2656C132.809 28.916 132.964 29.6777 132.964 30.5508V31.4561H126.311C126.328 32.5869 126.609 33.4482 127.154 34.04C127.699 34.6318 128.467 34.9277 129.457 34.9277C130.066 34.9277 130.605 34.8721 131.074 34.7607C131.543 34.6494 132.029 34.4854 132.533 34.2686V35.5518C132.047 35.7686 131.563 35.9268 131.083 36.0264C130.608 36.126 130.046 36.1758 129.396 36.1758C128.47 36.1758 127.661 35.9883 126.97 35.6133C126.284 35.2324 125.751 34.6758 125.37 33.9434C124.989 33.2109 124.799 32.3145 124.799 31.2539C124.799 30.2168 124.972 29.3203 125.317 28.5645C125.669 27.8027 126.161 27.2168 126.794 26.8066C127.433 26.3965 128.183 26.1914 129.044 26.1914ZM129.026 27.3867C128.247 27.3867 127.626 27.6416 127.163 28.1514C126.7 28.6611 126.425 29.373 126.337 30.2871H131.435C131.429 29.7129 131.338 29.209 131.162 28.7754C130.992 28.3359 130.731 27.9961 130.38 27.7559C130.028 27.5098 129.577 27.3867 129.026 27.3867Z" fill="white"/>
</svg>
