<svg width="152" height="58" viewBox="0 0 152 58" fill="none" xmlns="http://www.w3.org/2000/svg">
<rect width="152" height="58" rx="12" fill="#313131"/>
<g filter="url(#filter0_ii_109_248)">
<path d="M17.6595 17.3705C17.388 17.6579 17.2275 18.1039 17.2275 18.6815V39.3179C17.2275 39.8964 17.388 40.3415 17.6595 40.6289L17.7286 40.6961L29.2887 29.1359V28.9997V28.8634L17.7286 17.3024L17.6595 17.3705Z" fill="url(#paint0_linear_109_248)"/>
<path d="M33.1415 32.9905L29.2887 29.1359V28.9997V28.8635L33.1424 25.0098L33.2292 25.0592L37.7948 27.6532C39.0984 28.3941 39.0984 29.6062 37.7948 30.348L33.2292 32.942L33.1415 32.9905Z" fill="url(#paint1_linear_109_248)"/>
<g filter="url(#filter1_i_109_248)">
<path d="M33.2292 32.9412L29.2878 28.9998L17.6595 40.6289C18.0888 41.0843 18.7988 41.1403 19.5985 40.6868L33.2292 32.9412Z" fill="url(#paint2_linear_109_248)"/>
</g>
<path d="M33.2292 25.0583L19.5985 17.3136C18.7988 16.8592 18.0888 16.9161 17.6595 17.3714L29.2887 29.0006L33.2292 25.0583Z" fill="url(#paint3_linear_109_248)"/>
</g>
<path d="M55.8877 23.1504C57.5459 23.1504 58.7559 23.4756 59.5176 24.126C60.2852 24.7705 60.669 25.6963 60.669 26.9033C60.669 27.4482 60.5781 27.9668 60.3965 28.459C60.2207 28.9453 59.9336 29.376 59.5352 29.751C59.1367 30.1201 58.6123 30.4131 57.9619 30.6299C57.3174 30.8408 56.5264 30.9463 55.5889 30.9463H54.0244V36H52.5303V23.1504H55.8877ZM55.7471 24.4248H54.0244V29.6631H55.4219C56.2422 29.6631 56.9248 29.5752 57.4697 29.3994C58.0205 29.2236 58.4336 28.9395 58.709 28.5469C58.9844 28.1484 59.1221 27.6211 59.1221 26.9648C59.1221 26.1094 58.8496 25.4736 58.3047 25.0576C57.7598 24.6357 56.9072 24.4248 55.7471 24.4248ZM64.6065 36H63.1387V22.3242H64.6065V36ZM71.2949 26.209C72.4434 26.209 73.2959 26.4668 73.8526 26.9824C74.4092 27.498 74.6875 28.3213 74.6875 29.4521V36H73.624L73.3428 34.5762H73.2725C73.003 34.9277 72.7217 35.2236 72.4287 35.4639C72.1358 35.6982 71.7959 35.877 71.4092 36C71.0283 36.1172 70.5596 36.1758 70.003 36.1758C69.417 36.1758 68.8955 36.0732 68.4385 35.8682C67.9873 35.6631 67.6299 35.3525 67.3662 34.9365C67.1084 34.5205 66.9795 33.9932 66.9795 33.3545C66.9795 32.3936 67.3604 31.6553 68.1221 31.1396C68.8838 30.624 70.044 30.3428 71.6026 30.2959L73.2637 30.2256V29.6367C73.2637 28.8047 73.085 28.2217 72.7276 27.8877C72.3701 27.5537 71.8662 27.3867 71.2158 27.3867C70.7119 27.3867 70.2315 27.46 69.7744 27.6064C69.3174 27.7529 68.8838 27.9258 68.4737 28.125L68.0254 27.0176C68.459 26.7949 68.9571 26.6045 69.5196 26.4463C70.0821 26.2881 70.6739 26.209 71.2949 26.209ZM73.2461 31.2539L71.7783 31.3154C70.5772 31.3623 69.7305 31.5586 69.2383 31.9043C68.7461 32.25 68.5 32.7393 68.5 33.3721C68.5 33.9229 68.667 34.3301 69.001 34.5938C69.335 34.8574 69.7774 34.9893 70.3281 34.9893C71.1836 34.9893 71.8838 34.752 72.4287 34.2773C72.9737 33.8027 73.2461 33.0908 73.2461 32.1416V31.2539ZM76.1729 26.3672H77.7373L79.8643 31.957C79.9873 32.2852 80.1016 32.6016 80.2071 32.9062C80.3125 33.2051 80.4063 33.4922 80.4883 33.7676C80.5703 34.043 80.6348 34.3096 80.6817 34.5674H80.7432C80.8252 34.2744 80.9424 33.8906 81.0947 33.416C81.2471 32.9355 81.4112 32.4463 81.5869 31.9482L83.5996 26.3672H85.1729L80.9805 37.415C80.7578 38.0068 80.4971 38.5225 80.1983 38.9619C79.9053 39.4014 79.5479 39.7383 79.126 39.9727C78.7041 40.2129 78.1944 40.333 77.5967 40.333C77.3213 40.333 77.0781 40.3154 76.8672 40.2803C76.6563 40.251 76.4746 40.2158 76.3223 40.1748V39.0059C76.4512 39.0352 76.6065 39.0615 76.7881 39.085C76.9756 39.1084 77.169 39.1201 77.3682 39.1201C77.7315 39.1201 78.0449 39.0498 78.3086 38.9092C78.5781 38.7744 78.8096 38.5752 79.003 38.3115C79.1963 38.0479 79.3633 37.7344 79.5039 37.3711L80.0313 36.0176L76.1729 26.3672ZM97.6182 33.3633C97.6182 33.9785 97.4629 34.4971 97.1524 34.9189C96.8477 35.335 96.4082 35.6484 95.834 35.8594C95.2656 36.0703 94.586 36.1758 93.7949 36.1758C93.1211 36.1758 92.5381 36.123 92.0459 36.0176C91.5537 35.9121 91.1231 35.7627 90.7539 35.5693V34.2246C91.1465 34.418 91.6153 34.5938 92.1602 34.752C92.7051 34.9102 93.2617 34.9893 93.8301 34.9893C94.6621 34.9893 95.2656 34.8545 95.6406 34.585C96.0156 34.3154 96.2031 33.9492 96.2031 33.4863C96.2031 33.2227 96.127 32.9912 95.9746 32.792C95.8281 32.5869 95.5791 32.3906 95.2276 32.2031C94.876 32.0098 94.3897 31.7988 93.7686 31.5703C93.1533 31.3359 92.6201 31.1045 92.169 30.876C91.7237 30.6416 91.378 30.3574 91.1319 30.0234C90.8916 29.6895 90.7715 29.2559 90.7715 28.7227C90.7715 27.9082 91.0996 27.2842 91.7559 26.8506C92.418 26.4111 93.2852 26.1914 94.3574 26.1914C94.9375 26.1914 95.4795 26.25 95.9834 26.3672C96.4932 26.4785 96.9678 26.6309 97.4072 26.8242L96.9151 27.9932C96.5166 27.8232 96.0918 27.6797 95.6406 27.5625C95.1895 27.4453 94.7295 27.3867 94.2608 27.3867C93.5869 27.3867 93.0684 27.498 92.7051 27.7207C92.3477 27.9434 92.169 28.248 92.169 28.6348C92.169 28.9336 92.251 29.1797 92.4151 29.373C92.585 29.5664 92.8545 29.748 93.2237 29.918C93.5928 30.0879 94.0791 30.2871 94.6826 30.5156C95.2862 30.7383 95.8076 30.9697 96.2471 31.21C96.6865 31.4443 97.0235 31.7314 97.2578 32.0713C97.4981 32.4053 97.6182 32.8359 97.6182 33.3633ZM103.076 34.9805C103.316 34.9805 103.563 34.96 103.814 34.9189C104.066 34.8779 104.272 34.8281 104.43 34.7695V35.9033C104.26 35.9795 104.022 36.0439 103.718 36.0967C103.419 36.1494 103.126 36.1758 102.839 36.1758C102.329 36.1758 101.866 36.0879 101.45 35.9121C101.034 35.7305 100.7 35.4258 100.448 34.998C100.202 34.5703 100.079 33.9785 100.079 33.2227V27.5098H98.708V26.7979L100.088 26.2266L100.668 24.1348H101.547V26.3672H104.368V27.5098H101.547V33.1787C101.547 33.7822 101.685 34.2334 101.96 34.5322C102.241 34.8311 102.613 34.9805 103.076 34.9805ZM114.687 31.166C114.687 31.957 114.584 32.6631 114.379 33.2842C114.174 33.9053 113.878 34.4297 113.491 34.8574C113.105 35.2852 112.636 35.6133 112.085 35.8418C111.54 36.0645 110.922 36.1758 110.23 36.1758C109.586 36.1758 108.994 36.0645 108.455 35.8418C107.922 35.6133 107.459 35.2852 107.066 34.8574C106.68 34.4297 106.378 33.9053 106.161 33.2842C105.95 32.6631 105.845 31.957 105.845 31.166C105.845 30.1113 106.023 29.2148 106.381 28.4766C106.738 27.7324 107.248 27.167 107.91 26.7803C108.578 26.3877 109.372 26.1914 110.292 26.1914C111.171 26.1914 111.938 26.3877 112.595 26.7803C113.257 27.1729 113.77 27.7412 114.133 28.4854C114.502 29.2236 114.687 30.1172 114.687 31.166ZM107.356 31.166C107.356 31.9395 107.459 32.6104 107.664 33.1787C107.869 33.7471 108.186 34.1865 108.613 34.4971C109.041 34.8076 109.592 34.9629 110.266 34.9629C110.934 34.9629 111.481 34.8076 111.909 34.4971C112.343 34.1865 112.662 33.7471 112.867 33.1787C113.072 32.6104 113.175 31.9395 113.175 31.166C113.175 30.3984 113.072 29.7363 112.867 29.1797C112.662 28.6172 112.346 28.1836 111.918 27.8789C111.49 27.5742 110.937 27.4219 110.257 27.4219C109.255 27.4219 108.52 27.7529 108.051 28.415C107.588 29.0771 107.356 29.9941 107.356 31.166ZM121.586 26.1914C121.779 26.1914 121.981 26.2031 122.192 26.2266C122.403 26.2441 122.591 26.2705 122.755 26.3057L122.57 27.6592C122.412 27.6182 122.236 27.5859 122.043 27.5625C121.85 27.5391 121.668 27.5273 121.498 27.5273C121.111 27.5273 120.745 27.6064 120.399 27.7646C120.06 27.917 119.761 28.1396 119.503 28.4326C119.245 28.7197 119.043 29.0684 118.897 29.4785C118.75 29.8828 118.677 30.334 118.677 30.832V36H117.209V26.3672H118.422L118.58 28.1426H118.642C118.841 27.7852 119.081 27.46 119.362 27.167C119.644 26.8682 119.969 26.6309 120.338 26.4551C120.713 26.2793 121.129 26.1914 121.586 26.1914ZM128.283 26.1914C129.104 26.1914 129.807 26.373 130.393 26.7363C130.979 27.0996 131.427 27.6094 131.737 28.2656C132.048 28.916 132.203 29.6777 132.203 30.5508V31.4561H125.55C125.567 32.5869 125.849 33.4482 126.394 34.04C126.938 34.6318 127.706 34.9277 128.696 34.9277C129.306 34.9277 129.845 34.8721 130.313 34.7607C130.782 34.6494 131.269 34.4854 131.772 34.2686V35.5518C131.286 35.7686 130.803 35.9268 130.322 36.0264C129.848 36.126 129.285 36.1758 128.635 36.1758C127.709 36.1758 126.9 35.9883 126.209 35.6133C125.523 35.2324 124.99 34.6758 124.609 33.9434C124.229 33.2109 124.038 32.3145 124.038 31.2539C124.038 30.2168 124.211 29.3203 124.557 28.5645C124.908 27.8027 125.4 27.2168 126.033 26.8066C126.672 26.3965 127.422 26.1914 128.283 26.1914ZM128.266 27.3867C127.486 27.3867 126.865 27.6416 126.402 28.1514C125.939 28.6611 125.664 29.373 125.576 30.2871H130.674C130.668 29.7129 130.577 29.209 130.401 28.7754C130.231 28.3359 129.971 27.9961 129.619 27.7559C129.268 27.5098 128.816 27.3867 128.266 27.3867Z" fill="white"/>
<defs>
<filter id="filter0_ii_109_248" x="17.2275" y="17" width="21.545" height="24" filterUnits="userSpaceOnUse" color-interpolation-filters="sRGB">
<feFlood flood-opacity="0" result="BackgroundImageFix"/>
<feBlend mode="normal" in="SourceGraphic" in2="BackgroundImageFix" result="shape"/>
<feColorMatrix in="SourceAlpha" type="matrix" values="0 0 0 0 0 0 0 0 0 0 0 0 0 0 0 0 0 0 127 0" result="hardAlpha"/>
<feOffset dy="-0.15"/>
<feComposite in2="hardAlpha" operator="arithmetic" k2="-1" k3="1"/>
<feColorMatrix type="matrix" values="0 0 0 0 0 0 0 0 0 0 0 0 0 0 0 0 0 0 0.12 0"/>
<feBlend mode="normal" in2="shape" result="effect1_innerShadow_109_248"/>
<feColorMatrix in="SourceAlpha" type="matrix" values="0 0 0 0 0 0 0 0 0 0 0 0 0 0 0 0 0 0 127 0" result="hardAlpha"/>
<feOffset dy="0.15"/>
<feComposite in2="hardAlpha" operator="arithmetic" k2="-1" k3="1"/>
<feColorMatrix type="matrix" values="0 0 0 0 1 0 0 0 0 1 0 0 0 0 1 0 0 0 0.25 0"/>
<feBlend mode="normal" in2="effect1_innerShadow_109_248" result="effect2_innerShadow_109_248"/>
</filter>
<filter id="filter1_i_109_248" x="17.6595" y="28.9998" width="15.5697" height="12.0002" filterUnits="userSpaceOnUse" color-interpolation-filters="sRGB">
<feFlood flood-opacity="0" result="BackgroundImageFix"/>
<feBlend mode="normal" in="SourceGraphic" in2="BackgroundImageFix" result="shape"/>
<feColorMatrix in="SourceAlpha" type="matrix" values="0 0 0 0 0 0 0 0 0 0 0 0 0 0 0 0 0 0 127 0" result="hardAlpha"/>
<feOffset dy="-0.15"/>
<feComposite in2="hardAlpha" operator="arithmetic" k2="-1" k3="1"/>
<feColorMatrix type="matrix" values="0 0 0 0 0 0 0 0 0 0 0 0 0 0 0 0 0 0 0.08 0"/>
<feBlend mode="normal" in2="shape" result="effect1_innerShadow_109_248"/>
</filter>
<linearGradient id="paint0_linear_109_248" x1="28.264" y1="18.4631" x2="12.6048" y2="34.1224" gradientUnits="userSpaceOnUse">
<stop stop-color="#00A0FF"/>
<stop offset="0.0066" stop-color="#00A1FF"/>
<stop offset="0.2601" stop-color="#00BEFF"/>
<stop offset="0.5122" stop-color="#00D2FF"/>
<stop offset="0.7604" stop-color="#00DFFF"/>
<stop offset="1" stop-color="#00E3FF"/>
</linearGradient>
<linearGradient id="paint1_linear_109_248" x1="39.4917" y1="28.9997" x2="16.9145" y2="28.9997" gradientUnits="userSpaceOnUse">
<stop stop-color="#FFE000"/>
<stop offset="0.4087" stop-color="#FFBD00"/>
<stop offset="0.7754" stop-color="#FFA500"/>
<stop offset="1" stop-color="#FF9C00"/>
</linearGradient>
<linearGradient id="paint2_linear_109_248" x1="31.0888" y1="31.1402" x2="9.85287" y2="52.3761" gradientUnits="userSpaceOnUse">
<stop stop-color="#FF3A44"/>
<stop offset="1" stop-color="#C31162"/>
</linearGradient>
<linearGradient id="paint3_linear_109_248" x1="14.7309" y1="10.5018" x2="24.2133" y2="19.9842" gradientUnits="userSpaceOnUse">
<stop stop-color="#32A071"/>
<stop offset="0.0685" stop-color="#2DA771"/>
<stop offset="0.4762" stop-color="#15CF74"/>
<stop offset="0.8009" stop-color="#06E775"/>
<stop offset="1" stop-color="#00F076"/>
</linearGradient>
</defs>
</svg>
