<svg width="430" height="346" viewBox="0 0 430 346" fill="none" xmlns="http://www.w3.org/2000/svg">
<path d="M171.741 257.747C225.082 311.088 258.337 374.385 269.002 433.582C279.667 492.782 267.736 547.832 230.784 584.784C193.833 621.735 138.783 633.666 79.5826 623.002C20.3849 612.337 -42.9116 579.081 -96.2527 525.74C-149.594 472.399 -182.849 409.103 -193.514 349.905C-204.179 290.705 -192.248 235.655 -155.296 198.703C-118.345 161.752 -63.2946 149.821 -4.09465 160.486C55.1031 171.15 118.4 204.406 171.741 257.747Z" stroke="#303030"/>
<path d="M203.741 225.747C257.082 279.088 290.337 342.385 301.002 401.582C311.667 460.782 299.736 515.832 262.784 552.784C225.833 589.735 170.783 601.666 111.583 591.002C52.3849 580.337 -10.9116 547.081 -64.2527 493.74C-117.594 440.399 -150.849 377.103 -161.514 317.905C-172.179 258.705 -160.248 203.655 -123.296 166.703C-86.3446 129.752 -31.2946 117.821 27.9053 128.486C87.1031 139.15 150.4 172.406 203.741 225.747Z" stroke="#303030"/>
<path d="M235.741 193.747C289.082 247.088 322.337 310.385 333.002 369.582C343.667 428.782 331.736 483.832 294.784 520.784C257.833 557.735 202.783 569.666 143.583 559.002C84.3849 548.337 21.0884 515.081 -32.2527 461.74C-85.5939 408.399 -118.849 345.103 -129.514 285.905C-140.179 226.705 -128.248 171.655 -91.2962 134.703C-54.3446 97.7519 0.705387 85.8208 59.9053 96.4857C119.103 107.15 182.4 140.406 235.741 193.747Z" stroke="#303030"/>
</svg>
