<svg width="152" height="63" viewBox="0 0 152 63" fill="none" xmlns="http://www.w3.org/2000/svg">
<rect width="152" height="62.2928" rx="12" fill="#313131"/>
<g filter="url(#filter0_ii_83_206)">
<path d="M15.81 17.4367C15.4899 17.7755 15.3006 18.3013 15.3006 18.9822V43.3098C15.3006 43.9918 15.4899 44.5165 15.81 44.8553L15.8913 44.9345L29.5192 31.3066V31.146V30.9854L15.8913 17.3564L15.81 17.4367Z" fill="url(#paint0_linear_83_206)"/>
<path d="M34.0611 35.8507L29.5192 31.3066V31.146V30.9854L34.0622 26.4424L34.1645 26.5007L39.5468 29.5587C41.0835 30.4321 41.0835 31.861 39.5468 32.7355L34.1645 35.7935L34.0611 35.8507Z" fill="url(#paint1_linear_83_206)"/>
<g filter="url(#filter1_i_83_206)">
<path d="M34.1645 35.7924L29.5181 31.146L15.8099 44.8553C16.3159 45.3921 17.153 45.4581 18.0957 44.9235L34.1645 35.7924Z" fill="url(#paint2_linear_83_206)"/>
</g>
<path d="M34.1645 26.4997L18.0957 17.3697C17.153 16.834 16.3159 16.9011 15.8099 17.4379L29.5192 31.1472L34.1645 26.4997Z" fill="url(#paint3_linear_83_206)"/>
</g>
<path d="M57.8146 25.2969C59.4728 25.2969 60.6827 25.6221 61.4445 26.2725C62.212 26.917 62.5958 27.8428 62.5958 29.0498C62.5958 29.5947 62.505 30.1133 62.3234 30.6055C62.1476 31.0918 61.8605 31.5225 61.462 31.8975C61.0636 32.2666 60.5392 32.5596 59.8888 32.7764C59.2443 32.9873 58.4533 33.0928 57.5158 33.0928H55.9513V38.1465H54.4572V25.2969H57.8146ZM57.674 26.5713H55.9513V31.8096H57.3488C58.1691 31.8096 58.8517 31.7217 59.3966 31.5459C59.9474 31.3701 60.3605 31.0859 60.6359 30.6934C60.9113 30.2949 61.049 29.7676 61.049 29.1113C61.049 28.2559 60.7765 27.6201 60.2316 27.2041C59.6867 26.7822 58.8341 26.5713 57.674 26.5713ZM66.5333 38.1465H65.0656V24.4707H66.5333V38.1465ZM73.2218 28.3555C74.3702 28.3555 75.2228 28.6133 75.7794 29.1289C76.3361 29.6445 76.6144 30.4678 76.6144 31.5986V38.1465H75.5509L75.2697 36.7227H75.1993C74.9298 37.0742 74.6486 37.3701 74.3556 37.6104C74.0626 37.8447 73.7228 38.0234 73.3361 38.1465C72.9552 38.2637 72.4865 38.3223 71.9298 38.3223C71.3439 38.3223 70.8224 38.2197 70.3654 38.0146C69.9142 37.8096 69.5568 37.499 69.2931 37.083C69.0353 36.667 68.9064 36.1396 68.9064 35.501C68.9064 34.54 69.2872 33.8018 70.049 33.2861C70.8107 32.7705 71.9708 32.4893 73.5294 32.4424L75.1906 32.3721V31.7832C75.1906 30.9512 75.0118 30.3682 74.6544 30.0342C74.297 29.7002 73.7931 29.5332 73.1427 29.5332C72.6388 29.5332 72.1583 29.6064 71.7013 29.7529C71.2443 29.8994 70.8107 30.0723 70.4005 30.2715L69.9523 29.1641C70.3859 28.9414 70.8839 28.751 71.4464 28.5928C72.0089 28.4346 72.6007 28.3555 73.2218 28.3555ZM75.173 33.4004L73.7052 33.4619C72.504 33.5088 71.6574 33.7051 71.1652 34.0508C70.673 34.3965 70.4269 34.8857 70.4269 35.5186C70.4269 36.0693 70.5939 36.4766 70.9279 36.7402C71.2618 37.0039 71.7042 37.1357 72.255 37.1357C73.1105 37.1357 73.8107 36.8984 74.3556 36.4238C74.9005 35.9492 75.173 35.2373 75.173 34.2881V33.4004ZM78.0997 28.5137H79.6642L81.7911 34.1035C81.9142 34.4316 82.0285 34.748 82.1339 35.0527C82.2394 35.3516 82.3331 35.6387 82.4152 35.9141C82.4972 36.1895 82.5617 36.4561 82.6085 36.7139H82.6701C82.7521 36.4209 82.8693 36.0371 83.0216 35.5625C83.174 35.082 83.338 34.5928 83.5138 34.0947L85.5265 28.5137H87.0997L82.9074 39.5615C82.6847 40.1533 82.424 40.6689 82.1251 41.1084C81.8322 41.5479 81.4747 41.8848 81.0529 42.1191C80.631 42.3594 80.1212 42.4795 79.5236 42.4795C79.2482 42.4795 79.005 42.4619 78.7941 42.4268C78.5831 42.3975 78.4015 42.3623 78.2492 42.3213V41.1523C78.3781 41.1816 78.5333 41.208 78.715 41.2314C78.9025 41.2549 79.0958 41.2666 79.2951 41.2666C79.6583 41.2666 79.9718 41.1963 80.2355 41.0557C80.505 40.9209 80.7365 40.7217 80.9298 40.458C81.1232 40.1943 81.2902 39.8809 81.4308 39.5176L81.9581 38.1641L78.0997 28.5137ZM99.5451 35.5098C99.5451 36.125 99.3898 36.6436 99.0792 37.0654C98.7745 37.4814 98.3351 37.7949 97.7609 38.0059C97.1925 38.2168 96.5128 38.3223 95.7218 38.3223C95.048 38.3223 94.465 38.2695 93.9728 38.1641C93.4806 38.0586 93.0499 37.9092 92.6808 37.7158V36.3711C93.0734 36.5645 93.5421 36.7402 94.087 36.8984C94.632 37.0566 95.1886 37.1357 95.757 37.1357C96.589 37.1357 97.1925 37.001 97.5675 36.7314C97.9425 36.4619 98.13 36.0957 98.13 35.6328C98.13 35.3691 98.0538 35.1377 97.9015 34.9385C97.755 34.7334 97.506 34.5371 97.1544 34.3496C96.8029 34.1562 96.3165 33.9453 95.6954 33.7168C95.0802 33.4824 94.547 33.251 94.0958 33.0225C93.6505 32.7881 93.3048 32.5039 93.0587 32.1699C92.8185 31.8359 92.6984 31.4023 92.6984 30.8691C92.6984 30.0547 93.0265 29.4307 93.6827 28.9971C94.3449 28.5576 95.212 28.3379 96.2843 28.3379C96.8644 28.3379 97.4064 28.3965 97.9103 28.5137C98.4201 28.625 98.8947 28.7773 99.3341 28.9707L98.8419 30.1396C98.4435 29.9697 98.0187 29.8262 97.5675 29.709C97.1163 29.5918 96.6564 29.5332 96.1876 29.5332C95.5138 29.5332 94.9952 29.6445 94.632 29.8672C94.2745 30.0898 94.0958 30.3945 94.0958 30.7812C94.0958 31.0801 94.1779 31.3262 94.3419 31.5195C94.5118 31.7129 94.7814 31.8945 95.1505 32.0645C95.5197 32.2344 96.006 32.4336 96.6095 32.6621C97.213 32.8848 97.7345 33.1162 98.174 33.3564C98.6134 33.5908 98.9503 33.8779 99.1847 34.2178C99.4249 34.5518 99.5451 34.9824 99.5451 35.5098ZM105.003 37.127C105.243 37.127 105.489 37.1064 105.741 37.0654C105.993 37.0244 106.198 36.9746 106.357 36.916V38.0498C106.187 38.126 105.949 38.1904 105.645 38.2432C105.346 38.2959 105.053 38.3223 104.766 38.3223C104.256 38.3223 103.793 38.2344 103.377 38.0586C102.961 37.877 102.627 37.5723 102.375 37.1445C102.129 36.7168 102.006 36.125 102.006 35.3691V29.6562H100.635V28.9443L102.015 28.373L102.595 26.2812H103.474V28.5137H106.295V29.6562H103.474V35.3252C103.474 35.9287 103.611 36.3799 103.887 36.6787C104.168 36.9775 104.54 37.127 105.003 37.127ZM116.613 33.3125C116.613 34.1035 116.511 34.8096 116.306 35.4307C116.101 36.0518 115.805 36.5762 115.418 37.0039C115.031 37.4316 114.563 37.7598 114.012 37.9883C113.467 38.2109 112.849 38.3223 112.157 38.3223C111.513 38.3223 110.921 38.2109 110.382 37.9883C109.849 37.7598 109.386 37.4316 108.993 37.0039C108.607 36.5762 108.305 36.0518 108.088 35.4307C107.877 34.8096 107.772 34.1035 107.772 33.3125C107.772 32.2578 107.95 31.3613 108.308 30.623C108.665 29.8789 109.175 29.3135 109.837 28.9268C110.505 28.5342 111.299 28.3379 112.219 28.3379C113.098 28.3379 113.865 28.5342 114.522 28.9268C115.184 29.3193 115.696 29.8877 116.06 30.6318C116.429 31.3701 116.613 32.2637 116.613 33.3125ZM109.283 33.3125C109.283 34.0859 109.386 34.7568 109.591 35.3252C109.796 35.8936 110.112 36.333 110.54 36.6436C110.968 36.9541 111.519 37.1094 112.193 37.1094C112.86 37.1094 113.408 36.9541 113.836 36.6436C114.27 36.333 114.589 35.8936 114.794 35.3252C114.999 34.7568 115.102 34.0859 115.102 33.3125C115.102 32.5449 114.999 31.8828 114.794 31.3262C114.589 30.7637 114.273 30.3301 113.845 30.0254C113.417 29.7207 112.863 29.5684 112.184 29.5684C111.182 29.5684 110.446 29.8994 109.978 30.5615C109.515 31.2236 109.283 32.1406 109.283 33.3125ZM123.513 28.3379C123.706 28.3379 123.908 28.3496 124.119 28.373C124.33 28.3906 124.518 28.417 124.682 28.4521L124.497 29.8057C124.339 29.7646 124.163 29.7324 123.97 29.709C123.776 29.6855 123.595 29.6738 123.425 29.6738C123.038 29.6738 122.672 29.7529 122.326 29.9111C121.986 30.0635 121.688 30.2861 121.43 30.5791C121.172 30.8662 120.97 31.2148 120.823 31.625C120.677 32.0293 120.604 32.4805 120.604 32.9785V38.1465H119.136V28.5137H120.349L120.507 30.2891H120.568C120.768 29.9316 121.008 29.6064 121.289 29.3135C121.57 29.0146 121.896 28.7773 122.265 28.6016C122.64 28.4258 123.056 28.3379 123.513 28.3379ZM130.21 28.3379C131.03 28.3379 131.734 28.5195 132.319 28.8828C132.905 29.2461 133.354 29.7559 133.664 30.4121C133.975 31.0625 134.13 31.8242 134.13 32.6973V33.6025H127.477C127.494 34.7334 127.776 35.5947 128.32 36.1865C128.865 36.7783 129.633 37.0742 130.623 37.0742C131.233 37.0742 131.772 37.0186 132.24 36.9072C132.709 36.7959 133.195 36.6318 133.699 36.415V37.6982C133.213 37.915 132.73 38.0732 132.249 38.1729C131.775 38.2725 131.212 38.3223 130.562 38.3223C129.636 38.3223 128.827 38.1348 128.136 37.7598C127.45 37.3789 126.917 36.8223 126.536 36.0898C126.155 35.3574 125.965 34.4609 125.965 33.4004C125.965 32.3633 126.138 31.4668 126.484 30.7109C126.835 29.9492 127.327 29.3633 127.96 28.9531C128.599 28.543 129.349 28.3379 130.21 28.3379ZM130.193 29.5332C129.413 29.5332 128.792 29.7881 128.329 30.2979C127.866 30.8076 127.591 31.5195 127.503 32.4336H132.601C132.595 31.8594 132.504 31.3555 132.328 30.9219C132.158 30.4824 131.898 30.1426 131.546 29.9023C131.194 29.6562 130.743 29.5332 130.193 29.5332Z" fill="white"/>
<defs>
<filter id="filter0_ii_83_206" x="15.3006" y="17" width="25.3987" height="28.293" filterUnits="userSpaceOnUse" color-interpolation-filters="sRGB">
<feFlood flood-opacity="0" result="BackgroundImageFix"/>
<feBlend mode="normal" in="SourceGraphic" in2="BackgroundImageFix" result="shape"/>
<feColorMatrix in="SourceAlpha" type="matrix" values="0 0 0 0 0 0 0 0 0 0 0 0 0 0 0 0 0 0 127 0" result="hardAlpha"/>
<feOffset dy="-0.15"/>
<feComposite in2="hardAlpha" operator="arithmetic" k2="-1" k3="1"/>
<feColorMatrix type="matrix" values="0 0 0 0 0 0 0 0 0 0 0 0 0 0 0 0 0 0 0.12 0"/>
<feBlend mode="normal" in2="shape" result="effect1_innerShadow_83_206"/>
<feColorMatrix in="SourceAlpha" type="matrix" values="0 0 0 0 0 0 0 0 0 0 0 0 0 0 0 0 0 0 127 0" result="hardAlpha"/>
<feOffset dy="0.15"/>
<feComposite in2="hardAlpha" operator="arithmetic" k2="-1" k3="1"/>
<feColorMatrix type="matrix" values="0 0 0 0 1 0 0 0 0 1 0 0 0 0 1 0 0 0 0.25 0"/>
<feBlend mode="normal" in2="effect1_innerShadow_83_206" result="effect2_innerShadow_83_206"/>
</filter>
<filter id="filter1_i_83_206" x="15.8099" y="31.146" width="18.3546" height="14.147" filterUnits="userSpaceOnUse" color-interpolation-filters="sRGB">
<feFlood flood-opacity="0" result="BackgroundImageFix"/>
<feBlend mode="normal" in="SourceGraphic" in2="BackgroundImageFix" result="shape"/>
<feColorMatrix in="SourceAlpha" type="matrix" values="0 0 0 0 0 0 0 0 0 0 0 0 0 0 0 0 0 0 127 0" result="hardAlpha"/>
<feOffset dy="-0.15"/>
<feComposite in2="hardAlpha" operator="arithmetic" k2="-1" k3="1"/>
<feColorMatrix type="matrix" values="0 0 0 0 0 0 0 0 0 0 0 0 0 0 0 0 0 0 0.08 0"/>
<feBlend mode="normal" in2="shape" result="effect1_innerShadow_83_206"/>
</filter>
<linearGradient id="paint0_linear_83_206" x1="28.3112" y1="18.7248" x2="9.85103" y2="37.185" gradientUnits="userSpaceOnUse">
<stop stop-color="#00A0FF"/>
<stop offset="0.0066" stop-color="#00A1FF"/>
<stop offset="0.2601" stop-color="#00BEFF"/>
<stop offset="0.5122" stop-color="#00D2FF"/>
<stop offset="0.7604" stop-color="#00DFFF"/>
<stop offset="1" stop-color="#00E3FF"/>
</linearGradient>
<linearGradient id="paint1_linear_83_206" x1="41.5472" y1="31.146" x2="14.9317" y2="31.146" gradientUnits="userSpaceOnUse">
<stop stop-color="#FFE000"/>
<stop offset="0.4087" stop-color="#FFBD00"/>
<stop offset="0.7754" stop-color="#FFA500"/>
<stop offset="1" stop-color="#FF9C00"/>
</linearGradient>
<linearGradient id="paint2_linear_83_206" x1="31.6413" y1="33.6693" x2="6.60691" y2="58.7036" gradientUnits="userSpaceOnUse">
<stop stop-color="#FF3A44"/>
<stop offset="1" stop-color="#C31162"/>
</linearGradient>
<linearGradient id="paint3_linear_83_206" x1="12.3575" y1="9.33946" x2="23.536" y2="20.518" gradientUnits="userSpaceOnUse">
<stop stop-color="#32A071"/>
<stop offset="0.0685" stop-color="#2DA771"/>
<stop offset="0.4762" stop-color="#15CF74"/>
<stop offset="0.8009" stop-color="#06E775"/>
<stop offset="1" stop-color="#00F076"/>
</linearGradient>
</defs>
</svg>
