<svg width="472" height="466" viewBox="0 0 472 466" fill="none" xmlns="http://www.w3.org/2000/svg">
<path d="M461.741 3.74688C515.082 57.088 548.337 120.385 559.002 179.582C569.667 238.782 557.736 293.832 520.784 330.784C483.833 367.735 428.783 379.666 369.583 369.002C310.385 358.337 247.088 325.081 193.747 271.74C140.406 218.399 107.151 155.103 96.4861 95.905C85.8211 36.705 97.7523 -18.345 134.704 -55.2965C171.655 -92.2481 226.705 -104.179 285.905 -93.5143C345.103 -82.8498 408.4 -49.5942 461.741 3.74688Z" stroke="#303030"/>
<path d="M493.741 -28.2531C547.082 25.088 580.337 88.3845 591.002 147.582C601.667 206.782 589.736 261.832 552.784 298.784C515.833 335.735 460.783 347.666 401.583 337.002C342.385 326.337 279.088 293.081 225.747 239.74C172.406 186.399 139.151 123.103 128.486 63.905C117.821 4.70501 129.752 -50.345 166.704 -87.2965C203.655 -124.248 258.705 -136.179 317.905 -125.514C377.103 -114.85 440.4 -81.5942 493.741 -28.2531Z" stroke="#303030"/>
<path d="M525.741 -60.2531C579.082 -6.91201 612.337 56.3845 623.002 115.582C633.667 174.782 621.736 229.832 584.784 266.784C547.833 303.735 492.783 315.666 433.583 305.002C374.385 294.337 311.088 261.081 257.747 207.74C204.406 154.399 171.151 91.1027 160.486 31.905C149.821 -27.295 161.752 -82.345 198.704 -119.297C235.655 -156.248 290.705 -168.179 349.905 -157.514C409.103 -146.85 472.4 -113.594 525.741 -60.2531Z" stroke="#303030"/>
</svg>
