<svg width="153" height="61" viewBox="0 0 153 61" fill="none" xmlns="http://www.w3.org/2000/svg">
<rect width="153" height="61" rx="12" fill="#313131"/>
<path d="M36.5454 31.3585C36.5747 29.2742 37.7977 27.3021 39.7378 26.2104C38.5139 24.6105 36.4639 23.5961 34.3311 23.5351C32.0563 23.3165 29.8509 24.7809 28.6917 24.7809C27.5101 24.7809 25.7253 23.5567 23.8034 23.5929C21.2983 23.667 18.9629 24.9706 17.7441 26.9752C15.1242 31.1269 17.0784 37.2286 19.5881 40.5845C20.8437 42.2278 22.3112 44.0634 24.2314 43.9983C26.1104 43.927 26.8122 42.9016 29.0803 42.9016C31.3273 42.9016 31.9857 43.9983 33.9449 43.9569C35.9611 43.927 37.2315 42.3063 38.4431 40.6475C39.3452 39.4765 40.0394 38.1824 40.5 36.8131C38.1305 35.8958 36.5482 33.7133 36.5454 31.3585Z" fill="white"/>
<path d="M32.8449 21.328C33.9443 20.1201 34.4859 18.5675 34.3547 17C32.6752 17.1615 31.1237 17.8962 30.0095 19.0578C28.92 20.1927 28.353 21.7179 28.4602 23.2255C30.1403 23.2414 31.7921 22.5266 32.8449 21.328Z" fill="white"/>
<path d="M62.3174 37.5L60.7354 33.4219H55.585L54.0117 37.5H52.5L57.5273 24.5977H58.8721L63.8643 37.5H62.3174ZM60.2871 32.0947L58.7842 28.043C58.749 27.9375 58.6904 27.7646 58.6084 27.5244C58.5322 27.2842 58.4531 27.0352 58.3711 26.7773C58.2891 26.5195 58.2217 26.3115 58.1689 26.1533C58.1104 26.3936 58.0459 26.6338 57.9756 26.874C57.9111 27.1084 57.8467 27.3281 57.7822 27.5332C57.7178 27.7324 57.6621 27.9023 57.6152 28.043L56.0859 32.0947H60.2871ZM69.9551 27.6914C71.1562 27.6914 72.1143 28.1045 72.8291 28.9307C73.5439 29.7568 73.9014 30.999 73.9014 32.6572C73.9014 33.7529 73.7373 34.6729 73.4092 35.417C73.0811 36.1611 72.6182 36.7236 72.0205 37.1045C71.4287 37.4854 70.7285 37.6758 69.9199 37.6758C69.4102 37.6758 68.9619 37.6084 68.5752 37.4736C68.1885 37.3389 67.8574 37.1572 67.582 36.9287C67.3066 36.7002 67.0781 36.4512 66.8965 36.1816H66.791C66.8086 36.4102 66.8291 36.6855 66.8525 37.0078C66.8818 37.3301 66.8965 37.6113 66.8965 37.8516V41.8066H65.4287V27.8672H66.6328L66.8262 29.291H66.8965C67.084 28.998 67.3125 28.7314 67.582 28.4912C67.8516 28.2451 68.1797 28.0518 68.5664 27.9111C68.959 27.7646 69.4219 27.6914 69.9551 27.6914ZM69.7002 28.9219C69.0322 28.9219 68.4932 29.0508 68.083 29.3086C67.6787 29.5664 67.3828 29.9531 67.1953 30.4688C67.0078 30.9785 66.9082 31.6201 66.8965 32.3936V32.6748C66.8965 33.4893 66.9844 34.1777 67.1602 34.7402C67.3418 35.3027 67.6377 35.7305 68.0479 36.0234C68.4639 36.3164 69.0205 36.4629 69.7178 36.4629C70.3154 36.4629 70.8135 36.3018 71.2119 35.9795C71.6104 35.6572 71.9062 35.209 72.0996 34.6348C72.2988 34.0547 72.3984 33.3896 72.3984 32.6396C72.3984 31.5029 72.1758 30.6006 71.7305 29.9326C71.291 29.2588 70.6143 28.9219 69.7002 28.9219ZM80.9766 27.6914C82.1777 27.6914 83.1357 28.1045 83.8506 28.9307C84.5654 29.7568 84.9229 30.999 84.9229 32.6572C84.9229 33.7529 84.7588 34.6729 84.4307 35.417C84.1025 36.1611 83.6396 36.7236 83.042 37.1045C82.4502 37.4854 81.75 37.6758 80.9414 37.6758C80.4316 37.6758 79.9834 37.6084 79.5967 37.4736C79.21 37.3389 78.8789 37.1572 78.6035 36.9287C78.3281 36.7002 78.0996 36.4512 77.918 36.1816H77.8125C77.8301 36.4102 77.8506 36.6855 77.874 37.0078C77.9033 37.3301 77.918 37.6113 77.918 37.8516V41.8066H76.4502V27.8672H77.6543L77.8477 29.291H77.918C78.1055 28.998 78.334 28.7314 78.6035 28.4912C78.873 28.2451 79.2012 28.0518 79.5879 27.9111C79.9805 27.7646 80.4434 27.6914 80.9766 27.6914ZM80.7217 28.9219C80.0537 28.9219 79.5146 29.0508 79.1045 29.3086C78.7002 29.5664 78.4043 29.9531 78.2168 30.4688C78.0293 30.9785 77.9297 31.6201 77.918 32.3936V32.6748C77.918 33.4893 78.0059 34.1777 78.1816 34.7402C78.3633 35.3027 78.6592 35.7305 79.0693 36.0234C79.4854 36.3164 80.042 36.4629 80.7393 36.4629C81.3369 36.4629 81.835 36.3018 82.2334 35.9795C82.6318 35.6572 82.9277 35.209 83.1211 34.6348C83.3203 34.0547 83.4199 33.3896 83.4199 32.6396C83.4199 31.5029 83.1973 30.6006 82.752 29.9326C82.3125 29.2588 81.6357 28.9219 80.7217 28.9219ZM98.3789 34.8633C98.3789 35.4785 98.2236 35.9971 97.9131 36.4189C97.6084 36.835 97.1689 37.1484 96.5947 37.3594C96.0264 37.5703 95.3467 37.6758 94.5557 37.6758C93.8818 37.6758 93.2988 37.623 92.8066 37.5176C92.3145 37.4121 91.8838 37.2627 91.5146 37.0693V35.7246C91.9072 35.918 92.376 36.0938 92.9209 36.252C93.4658 36.4102 94.0225 36.4893 94.5908 36.4893C95.4229 36.4893 96.0264 36.3545 96.4014 36.085C96.7764 35.8154 96.9639 35.4492 96.9639 34.9863C96.9639 34.7227 96.8877 34.4912 96.7354 34.292C96.5889 34.0869 96.3398 33.8906 95.9883 33.7031C95.6367 33.5098 95.1504 33.2988 94.5293 33.0703C93.9141 32.8359 93.3809 32.6045 92.9297 32.376C92.4844 32.1416 92.1387 31.8574 91.8926 31.5234C91.6523 31.1895 91.5322 30.7559 91.5322 30.2227C91.5322 29.4082 91.8604 28.7842 92.5166 28.3506C93.1787 27.9111 94.0459 27.6914 95.1182 27.6914C95.6982 27.6914 96.2402 27.75 96.7441 27.8672C97.2539 27.9785 97.7285 28.1309 98.168 28.3242L97.6758 29.4932C97.2773 29.3232 96.8525 29.1797 96.4014 29.0625C95.9502 28.9453 95.4902 28.8867 95.0215 28.8867C94.3477 28.8867 93.8291 28.998 93.4658 29.2207C93.1084 29.4434 92.9297 29.748 92.9297 30.1348C92.9297 30.4336 93.0117 30.6797 93.1758 30.873C93.3457 31.0664 93.6152 31.248 93.9844 31.418C94.3535 31.5879 94.8398 31.7871 95.4434 32.0156C96.0469 32.2383 96.5684 32.4697 97.0078 32.71C97.4473 32.9443 97.7842 33.2314 98.0186 33.5713C98.2588 33.9053 98.3789 34.3359 98.3789 34.8633ZM103.837 36.4805C104.077 36.4805 104.323 36.46 104.575 36.4189C104.827 36.3779 105.032 36.3281 105.19 36.2695V37.4033C105.021 37.4795 104.783 37.5439 104.479 37.5967C104.18 37.6494 103.887 37.6758 103.6 37.6758C103.09 37.6758 102.627 37.5879 102.211 37.4121C101.795 37.2305 101.461 36.9258 101.209 36.498C100.963 36.0703 100.84 35.4785 100.84 34.7227V29.0098H99.4688V28.2979L100.849 27.7266L101.429 25.6348H102.308V27.8672H105.129V29.0098H102.308V34.6787C102.308 35.2822 102.445 35.7334 102.721 36.0322C103.002 36.3311 103.374 36.4805 103.837 36.4805ZM115.447 32.666C115.447 33.457 115.345 34.1631 115.14 34.7842C114.935 35.4053 114.639 35.9297 114.252 36.3574C113.865 36.7852 113.396 37.1133 112.846 37.3418C112.301 37.5645 111.683 37.6758 110.991 37.6758C110.347 37.6758 109.755 37.5645 109.216 37.3418C108.683 37.1133 108.22 36.7852 107.827 36.3574C107.44 35.9297 107.139 35.4053 106.922 34.7842C106.711 34.1631 106.605 33.457 106.605 32.666C106.605 31.6113 106.784 30.7148 107.142 29.9766C107.499 29.2324 108.009 28.667 108.671 28.2803C109.339 27.8877 110.133 27.6914 111.053 27.6914C111.932 27.6914 112.699 27.8877 113.355 28.2803C114.018 28.6729 114.53 29.2412 114.894 29.9854C115.263 30.7236 115.447 31.6172 115.447 32.666ZM108.117 32.666C108.117 33.4395 108.22 34.1104 108.425 34.6787C108.63 35.2471 108.946 35.6865 109.374 35.9971C109.802 36.3076 110.353 36.4629 111.026 36.4629C111.694 36.4629 112.242 36.3076 112.67 35.9971C113.104 35.6865 113.423 35.2471 113.628 34.6787C113.833 34.1104 113.936 33.4395 113.936 32.666C113.936 31.8984 113.833 31.2363 113.628 30.6797C113.423 30.1172 113.106 29.6836 112.679 29.3789C112.251 29.0742 111.697 28.9219 111.018 28.9219C110.016 28.9219 109.28 29.2529 108.812 29.915C108.349 30.5771 108.117 31.4941 108.117 32.666ZM122.347 27.6914C122.54 27.6914 122.742 27.7031 122.953 27.7266C123.164 27.7441 123.352 27.7705 123.516 27.8057L123.331 29.1592C123.173 29.1182 122.997 29.0859 122.804 29.0625C122.61 29.0391 122.429 29.0273 122.259 29.0273C121.872 29.0273 121.506 29.1064 121.16 29.2646C120.82 29.417 120.521 29.6396 120.264 29.9326C120.006 30.2197 119.804 30.5684 119.657 30.9785C119.511 31.3828 119.438 31.834 119.438 32.332V37.5H117.97V27.8672H119.183L119.341 29.6426H119.402C119.602 29.2852 119.842 28.96 120.123 28.667C120.404 28.3682 120.729 28.1309 121.099 27.9551C121.474 27.7793 121.89 27.6914 122.347 27.6914ZM129.044 27.6914C129.864 27.6914 130.567 27.873 131.153 28.2363C131.739 28.5996 132.188 29.1094 132.498 29.7656C132.809 30.416 132.964 31.1777 132.964 32.0508V32.9561H126.311C126.328 34.0869 126.609 34.9482 127.154 35.54C127.699 36.1318 128.467 36.4277 129.457 36.4277C130.066 36.4277 130.605 36.3721 131.074 36.2607C131.543 36.1494 132.029 35.9854 132.533 35.7686V37.0518C132.047 37.2686 131.563 37.4268 131.083 37.5264C130.608 37.626 130.046 37.6758 129.396 37.6758C128.47 37.6758 127.661 37.4883 126.97 37.1133C126.284 36.7324 125.751 36.1758 125.37 35.4434C124.989 34.7109 124.799 33.8145 124.799 32.7539C124.799 31.7168 124.972 30.8203 125.317 30.0645C125.669 29.3027 126.161 28.7168 126.794 28.3066C127.433 27.8965 128.183 27.6914 129.044 27.6914ZM129.026 28.8867C128.247 28.8867 127.626 29.1416 127.163 29.6514C126.7 30.1611 126.425 30.873 126.337 31.7871H131.435C131.429 31.2129 131.338 30.709 131.162 30.2754C130.992 29.8359 130.731 29.4961 130.38 29.2559C130.028 29.0098 129.577 28.8867 129.026 28.8867Z" fill="white"/>
</svg>
