<svg width="30" height="22" viewBox="0 0 30 22" fill="none" xmlns="http://www.w3.org/2000/svg">
<mask id="path-1-outside-1_90_1254" maskUnits="userSpaceOnUse" x="-1" y="-1" width="32" height="24" fill="black">
<rect fill="white" x="-1" y="-1" width="32" height="24"/>
<path d="M13.9844 11.0059C13.9844 12.6191 13.8568 14.0592 13.6016 15.3262C13.3555 16.5931 12.9544 17.6686 12.3984 18.5527C11.8516 19.4368 11.1315 20.1113 10.2383 20.5762C9.34505 21.041 8.26042 21.2734 6.98438 21.2734C5.38021 21.2734 4.06315 20.8678 3.0332 20.0566C2.00326 19.2363 1.24219 18.0605 0.75 16.5293C0.257812 14.9889 0.0117188 13.1478 0.0117188 11.0059C0.0117188 8.8457 0.235026 7 0.681641 5.46875C1.13737 3.92839 1.87565 2.74805 2.89648 1.92773C3.91732 1.10742 5.27995 0.697266 6.98438 0.697266C8.57943 0.697266 9.89193 1.10742 10.9219 1.92773C11.9609 2.73893 12.7311 3.91471 13.2324 5.45508C13.7337 6.98633 13.9844 8.83659 13.9844 11.0059ZM4.20898 11.0059C4.20898 12.528 4.29102 13.7995 4.45508 14.8203C4.62826 15.832 4.91536 16.5931 5.31641 17.1035C5.71745 17.6139 6.27344 17.8691 6.98438 17.8691C7.6862 17.8691 8.23763 17.6185 8.63867 17.1172C9.04883 16.6068 9.34049 15.8457 9.51367 14.834C9.68685 13.8132 9.77344 12.5371 9.77344 11.0059C9.77344 9.48372 9.68685 8.21224 9.51367 7.19141C9.34049 6.17057 9.04883 5.40495 8.63867 4.89453C8.23763 4.375 7.6862 4.11523 6.98438 4.11523C6.27344 4.11523 5.71745 4.375 5.31641 4.89453C4.91536 5.40495 4.62826 6.17057 4.45508 7.19141C4.29102 8.21224 4.20898 9.48372 4.20898 11.0059ZM29.3379 5.48242C29.3379 6.40299 29.1465 7.20052 28.7637 7.875C28.3809 8.54948 27.8613 9.10091 27.2051 9.5293C26.5579 9.95768 25.8288 10.2721 25.0176 10.4727V10.5547C26.6217 10.7552 27.8385 11.2474 28.668 12.0312C29.5065 12.8151 29.9258 13.8633 29.9258 15.1758C29.9258 16.3424 29.6387 17.3861 29.0645 18.3066C28.4993 19.2272 27.6243 19.9518 26.4395 20.4805C25.2546 21.0091 23.7279 21.2734 21.8594 21.2734C20.7565 21.2734 19.7266 21.1823 18.7695 21C17.8216 20.8268 16.9284 20.5579 16.0898 20.1934V16.5977C16.9466 17.0352 17.8444 17.3678 18.7832 17.5957C19.722 17.8145 20.597 17.9238 21.4082 17.9238C22.9212 17.9238 23.9785 17.6641 24.5801 17.1445C25.1908 16.6159 25.4961 15.8776 25.4961 14.9297C25.4961 14.3737 25.3548 13.9043 25.0723 13.5215C24.7897 13.1387 24.2975 12.847 23.5957 12.6465C22.903 12.446 21.9323 12.3457 20.6836 12.3457H19.166V9.10547H20.7109C21.9414 9.10547 22.8757 8.99154 23.5137 8.76367C24.1608 8.52669 24.5983 8.20768 24.8262 7.80664C25.0632 7.39648 25.1816 6.93164 25.1816 6.41211C25.1816 5.70117 24.9629 5.14518 24.5254 4.74414C24.0879 4.3431 23.3587 4.14258 22.3379 4.14258C21.6999 4.14258 21.1165 4.22461 20.5879 4.38867C20.0684 4.54362 19.599 4.73503 19.1797 4.96289C18.7604 5.18164 18.3913 5.39583 18.0723 5.60547L16.1172 2.69336C16.901 2.12826 17.8171 1.65885 18.8652 1.28516C19.9225 0.911458 21.1803 0.724609 22.6387 0.724609C24.6986 0.724609 26.3301 1.13932 27.5332 1.96875C28.7363 2.79818 29.3379 3.9694 29.3379 5.48242Z"/>
</mask>
<path d="M13.6016 15.3262L12.6212 15.1287L12.6199 15.1355L13.6016 15.3262ZM12.3984 18.5527L11.5519 18.0204L11.548 18.0267L12.3984 18.5527ZM3.0332 20.0566L2.41019 20.8389L2.41446 20.8422L3.0332 20.0566ZM0.75 16.5293L-0.202556 16.8337L-0.202029 16.8353L0.75 16.5293ZM0.681641 5.46875L-0.277279 5.18505L-0.278359 5.18875L0.681641 5.46875ZM2.89648 1.92773L2.27009 1.14823L2.89648 1.92773ZM10.9219 1.92773L10.2988 2.70999L10.3065 2.71597L10.9219 1.92773ZM13.2324 5.45508L12.2815 5.76455L12.2821 5.76621L13.2324 5.45508ZM4.45508 14.8203L3.4677 14.979L3.46941 14.989L4.45508 14.8203ZM5.31641 17.1035L6.10272 16.4857L5.31641 17.1035ZM8.63867 17.1172L7.85916 16.4908L7.8578 16.4925L8.63867 17.1172ZM9.51367 14.834L10.4993 15.0027L10.4996 15.0012L9.51367 14.834ZM9.51367 7.19141L8.52776 7.35866L9.51367 7.19141ZM8.63867 4.89453L7.84708 5.50558L7.85305 5.51331L7.85916 5.52092L8.63867 4.89453ZM5.31641 4.89453L6.10275 5.51238L6.108 5.50558L5.31641 4.89453ZM4.45508 7.19141L3.46913 7.02415L3.46775 7.03273L4.45508 7.19141ZM12.9844 11.0059C12.9844 12.5684 12.8606 13.9404 12.6213 15.1287L14.5819 15.5236C14.8529 14.178 14.9844 12.6699 14.9844 11.0059H12.9844ZM12.6199 15.1355C12.392 16.3088 12.0287 17.2623 11.5519 18.0204L13.245 19.0851C13.8802 18.075 14.3189 16.8774 14.5832 15.5169L12.6199 15.1355ZM11.548 18.0267C11.0926 18.7628 10.5048 19.3102 9.77664 19.6891L10.6999 21.4632C11.7582 20.9125 12.6105 20.1109 13.2489 19.0788L11.548 18.0267ZM9.77664 19.6891C9.05901 20.0626 8.14159 20.2734 6.98438 20.2734V22.2734C8.37924 22.2734 9.63109 22.0195 10.6999 21.4632L9.77664 19.6891ZM6.98438 20.2734C5.55307 20.2734 4.46889 19.9145 3.65195 19.271L2.41446 20.8422C3.65741 21.8212 5.20735 22.2734 6.98438 22.2734V20.2734ZM3.65621 19.2744C2.81168 18.6018 2.14737 17.6088 1.70203 16.2233L-0.202029 16.8353C0.337004 18.5123 1.19483 19.8709 2.4102 20.8389L3.65621 19.2744ZM1.70255 16.2249C1.25012 14.809 1.01172 13.0759 1.01172 11.0059H-0.988281C-0.988281 13.2197 -0.734496 15.1689 -0.202555 16.8337L1.70255 16.2249ZM1.01172 11.0059C1.01172 8.90933 1.22905 7.16333 1.64164 5.74875L-0.278359 5.18875C-0.759002 6.83667 -0.988281 8.78207 -0.988281 11.0059H1.01172ZM1.64055 5.75245C2.05176 4.36257 2.69366 3.37357 3.52288 2.70724L2.27009 1.14823C1.05764 2.12252 0.222979 3.4942 -0.277272 5.18505L1.64055 5.75245ZM3.52288 2.70724C4.31869 2.06775 5.43839 1.69727 6.98438 1.69727V-0.302734C5.12151 -0.302734 3.51595 0.147095 2.27009 1.14823L3.52288 2.70724ZM6.98438 1.69727C8.40252 1.69727 9.4811 2.05863 10.2989 2.70995L11.5449 1.14552C10.3028 0.156215 8.75633 -0.302734 6.98438 -0.302734V1.69727ZM10.3065 2.71597C11.1558 3.37903 11.8276 4.36991 12.2815 5.76455L14.1833 5.14561C13.6346 3.45952 12.7661 2.09883 11.5373 1.1395L10.3065 2.71597ZM12.2821 5.76621C12.7413 7.16904 12.9844 8.90814 12.9844 11.0059H14.9844C14.9844 8.76504 14.7261 6.80361 14.1828 5.14395L12.2821 5.76621ZM3.20898 11.0059C3.20898 12.5588 3.29233 13.8875 3.46775 14.979L5.44241 14.6616C5.28971 13.7115 5.20898 12.4972 5.20898 11.0059H3.20898ZM3.46941 14.989C3.65594 16.0788 3.98331 17.0254 4.53009 17.7213L6.10272 16.4857C5.84742 16.1608 5.60057 15.5853 5.44074 14.6516L3.46941 14.989ZM4.53009 17.7213C5.14048 18.4982 6.00006 18.8691 6.98438 18.8691V16.8691C6.54681 16.8691 6.29441 16.7297 6.10272 16.4857L4.53009 17.7213ZM6.98438 18.8691C7.95762 18.8691 8.80939 18.5046 9.41954 17.7419L7.8578 16.4925C7.66587 16.7324 7.41477 16.8691 6.98438 16.8691V18.8691ZM9.41818 17.7436C9.97877 17.046 10.3122 16.0958 10.4993 15.0027L8.52801 14.6653C8.36875 15.5956 8.11889 16.1676 7.85916 16.4908L9.41818 17.7436ZM10.4996 15.0012C10.6854 13.9058 10.7734 12.5693 10.7734 11.0059H8.77344C8.77344 12.5049 8.68827 13.7205 8.52776 14.6667L10.4996 15.0012ZM10.7734 11.0059C10.7734 9.45116 10.6854 8.11937 10.4996 7.02415L8.52776 7.35866C8.68832 8.30511 8.77344 9.51629 8.77344 11.0059H10.7734ZM10.4996 7.02415C10.3129 5.92352 9.97994 4.96722 9.41818 4.26814L7.85916 5.52092C8.11771 5.84267 8.36812 6.41762 8.52776 7.35866L10.4996 7.02415ZM9.43026 4.28348C8.82518 3.49962 7.97121 3.11523 6.98438 3.11523V5.11523C7.40119 5.11523 7.65008 5.25038 7.84708 5.50558L9.43026 4.28348ZM6.98438 3.11523C5.9933 3.11523 5.13267 3.49604 4.52482 4.28348L6.108 5.50558C6.30223 5.25396 6.55357 5.11523 6.98438 5.11523V3.11523ZM4.53009 4.27671C3.98217 4.97406 3.65532 5.92682 3.46916 7.02415L5.44099 7.35866C5.60119 6.41433 5.84856 5.83583 6.10272 5.51235L4.53009 4.27671ZM3.46775 7.03273C3.29233 8.12425 3.20898 9.45292 3.20898 11.0059H5.20898C5.20898 9.51453 5.28971 8.30023 5.44241 7.35008L3.46775 7.03273ZM27.2051 9.5293L26.6584 8.6919L26.6531 8.69544L27.2051 9.5293ZM25.0176 10.4727L24.7776 9.50187L24.0176 9.68975V10.4727H25.0176ZM25.0176 10.5547H24.0176V11.4375L24.8935 11.547L25.0176 10.5547ZM28.668 12.0312L27.9811 12.7581L27.9851 12.7618L28.668 12.0312ZM29.0645 18.3066L28.216 17.7774L28.2122 17.7835L29.0645 18.3066ZM18.7695 21L18.9566 20.0176L18.9492 20.0163L18.7695 21ZM16.0898 20.1934H15.0898V20.849L15.6911 21.1104L16.0898 20.1934ZM16.0898 16.5977L16.5446 15.7071L15.0898 14.9642V16.5977H16.0898ZM18.7832 17.5957L18.5473 18.5675L18.5563 18.5696L18.7832 17.5957ZM24.5801 17.1445L25.2337 17.9014L25.2346 17.9006L24.5801 17.1445ZM23.5957 12.6465L23.3176 13.6071L23.321 13.608L23.5957 12.6465ZM19.166 12.3457H18.166V13.3457H19.166V12.3457ZM19.166 9.10547V8.10547H18.166V9.10547H19.166ZM23.5137 8.76367L23.85 9.70544L23.8575 9.70269L23.5137 8.76367ZM24.8262 7.80664L23.9603 7.30635L23.9567 7.31263L24.8262 7.80664ZM24.5254 4.74414L25.2011 4.00699L24.5254 4.74414ZM20.5879 4.38867L20.8737 5.34702L20.8843 5.34374L20.5879 4.38867ZM19.1797 4.96289L19.6423 5.84948L19.6498 5.84556L19.6572 5.84152L19.1797 4.96289ZM18.0723 5.60547L17.242 6.16286L17.7939 6.98496L18.6214 6.44117L18.0723 5.60547ZM16.1172 2.69336L15.5324 1.88218L14.7479 2.44778L15.2869 3.25076L16.1172 2.69336ZM18.8652 1.28516L18.532 0.342313L18.5294 0.343229L18.8652 1.28516ZM28.3379 5.48242C28.3379 6.26241 28.1767 6.88331 27.894 7.3814L29.6334 8.3686C30.1163 7.51773 30.3379 6.54358 30.3379 5.48242H28.3379ZM27.894 7.3814C27.5908 7.91565 27.1826 8.34977 26.6585 8.69192L27.7517 10.3667C28.5401 9.85206 29.171 9.18331 29.6334 8.3686L27.894 7.3814ZM26.6531 8.69544C26.1084 9.05599 25.4863 9.3267 24.7776 9.50187L25.2575 11.4434C26.1713 11.2176 27.0075 10.8594 27.7571 10.3631L26.6531 8.69544ZM24.0176 10.4727V10.5547H26.0176V10.4727H24.0176ZM24.8935 11.547C26.3718 11.7318 27.3588 12.1699 27.9811 12.758L29.3548 11.3045C28.3183 10.3249 26.8716 9.77866 25.1416 9.56241L24.8935 11.547ZM27.9851 12.7618C28.5915 13.3287 28.9258 14.0966 28.9258 15.1758H30.9258C30.9258 13.63 30.4215 12.3015 29.3509 11.3007L27.9851 12.7618ZM28.9258 15.1758C28.9258 16.17 28.6837 17.0276 28.216 17.7774L29.9129 18.8359C30.5937 17.7445 30.9258 16.5149 30.9258 15.1758H28.9258ZM28.2122 17.7835C27.7724 18.5 27.0704 19.104 26.032 19.5672L26.8469 21.3937C28.1783 20.7997 29.2263 19.9544 29.9167 18.8298L28.2122 17.7835ZM26.032 19.5672C25.0188 20.0193 23.6445 20.2734 21.8594 20.2734V22.2734C23.8112 22.2734 25.4903 21.9989 26.8469 21.3937L26.032 19.5672ZM21.8594 20.2734C20.8112 20.2734 19.8445 20.1868 18.9566 20.0177L18.5824 21.9823C19.6086 22.1778 20.7018 22.2734 21.8594 22.2734V20.2734ZM18.9492 20.0163C18.0726 19.8561 17.2532 19.6088 16.4886 19.2763L15.6911 21.1104C16.6035 21.5071 17.5706 21.7975 18.5898 21.9837L18.9492 20.0163ZM17.0898 20.1934V16.5977H15.0898V20.1934H17.0898ZM15.6351 17.4883C16.5617 17.9614 17.533 18.3213 18.5473 18.5675L19.0191 16.6239C18.1558 16.4144 17.3315 16.1089 16.5446 15.7071L15.6351 17.4883ZM18.5563 18.5696C19.556 18.8026 20.5079 18.9238 21.4082 18.9238V16.9238C20.6861 16.9238 19.888 16.8263 19.0101 16.6218L18.5563 18.5696ZM21.4082 18.9238C22.9722 18.9238 24.3459 18.6681 25.2337 17.9014L23.9265 16.3877C23.6112 16.66 22.8702 16.9238 21.4082 16.9238V18.9238ZM25.2346 17.9006C26.1035 17.1484 26.4961 16.1122 26.4961 14.9297H24.4961C24.4961 15.643 24.278 16.0834 23.9256 16.3885L25.2346 17.9006ZM26.4961 14.9297C26.4961 14.1972 26.3068 13.5102 25.8768 12.9276L24.2677 14.1153C24.4028 14.2984 24.4961 14.5502 24.4961 14.9297H26.4961ZM25.8768 12.9276C25.4095 12.2945 24.6774 11.9155 23.8704 11.685L23.321 13.608C23.9176 13.7785 24.1699 13.9829 24.2677 14.1153L25.8768 12.9276ZM23.8738 11.6859C23.0482 11.4469 21.9684 11.3457 20.6836 11.3457V13.3457C21.8962 13.3457 22.7578 13.445 23.3176 13.607L23.8738 11.6859ZM20.6836 11.3457H19.166V13.3457H20.6836V11.3457ZM20.166 12.3457V9.10547H18.166V12.3457H20.166ZM19.166 10.1055H20.7109V8.10547H19.166V10.1055ZM20.7109 10.1055C21.9784 10.1055 23.0494 9.99134 23.85 9.70541L23.1773 7.82193C22.7019 7.99173 21.9045 8.10547 20.7109 8.10547V10.1055ZM23.8575 9.70269C24.6208 9.42318 25.305 8.98821 25.6956 8.30065L23.9567 7.31263C23.8916 7.42715 23.7008 7.63021 23.1698 7.82465L23.8575 9.70269ZM25.692 8.30692C26.0252 7.73023 26.1816 7.08981 26.1816 6.41211H24.1816C24.1816 6.77347 24.1011 7.06274 23.9603 7.30636L25.692 8.30692ZM26.1816 6.41211C26.1816 5.4811 25.8858 4.63464 25.2011 4.00699L23.8497 5.48129C24.04 5.65573 24.1816 5.92124 24.1816 6.41211H26.1816ZM25.2011 4.00699C24.4854 3.35094 23.443 3.14258 22.3379 3.14258V5.14258C23.2744 5.14258 23.6904 5.33526 23.8497 5.48129L25.2011 4.00699ZM22.3379 3.14258C21.6144 3.14258 20.9295 3.23561 20.2915 3.43361L20.8843 5.34374C21.3036 5.21361 21.7854 5.14258 22.3379 5.14258V3.14258ZM20.3021 3.43038C19.7249 3.60253 19.19 3.81915 18.7022 4.08427L19.6572 5.84152C20.0079 5.65091 20.4118 5.4847 20.8737 5.34696L20.3021 3.43038ZM18.7171 4.07631C18.2748 4.30706 17.8758 4.538 17.5231 4.76976L18.6214 6.44117C18.9068 6.25366 19.246 6.05622 19.6423 5.84948L18.7171 4.07631ZM18.9025 5.04807L16.9474 2.13596L15.2869 3.25076L17.242 6.16286L18.9025 5.04807ZM16.702 3.50454C17.3989 3.00213 18.2285 2.57383 19.2011 2.22708L18.5294 0.343229C17.4056 0.74388 16.4032 1.25438 15.5324 1.88218L16.702 3.50454ZM19.1985 2.228C20.122 1.90157 21.2616 1.72461 22.6387 1.72461V-0.275391C21.0991 -0.275391 19.723 -0.0786505 18.532 0.342316L19.1985 2.228ZM22.6387 1.72461C24.5759 1.72461 25.985 2.11603 26.9656 2.79206L28.1008 1.14544C26.6752 0.162616 24.8212 -0.275391 22.6387 -0.275391V1.72461ZM26.9656 2.79206C27.8868 3.42711 28.3379 4.28438 28.3379 5.48242H30.3379C30.3379 3.65443 29.5859 2.16925 28.1008 1.14544L26.9656 2.79206Z" fill="#FFB800" mask="url(#path-1-outside-1_90_1254)"/>
</svg>
