<svg width="27" height="22" viewBox="0 0 27 22" fill="none" xmlns="http://www.w3.org/2000/svg">
<mask id="path-1-outside-1_266_5936" maskUnits="userSpaceOnUse" x="-1" y="-1" width="29" height="24" fill="black">
<rect fill="white" x="-1" y="-1" width="29" height="24"/>
<path d="M13.9844 11.0059C13.9844 12.6191 13.8568 14.0592 13.6016 15.3262C13.3555 16.5931 12.9544 17.6686 12.3984 18.5527C11.8516 19.4368 11.1315 20.1113 10.2383 20.5762C9.34505 21.041 8.26042 21.2734 6.98438 21.2734C5.38021 21.2734 4.06315 20.8678 3.0332 20.0566C2.00326 19.2363 1.24219 18.0605 0.75 16.5293C0.257812 14.9889 0.0117188 13.1478 0.0117188 11.0059C0.0117188 8.8457 0.235026 7 0.681641 5.46875C1.13737 3.92839 1.87565 2.74805 2.89648 1.92773C3.91732 1.10742 5.27995 0.697266 6.98438 0.697266C8.57943 0.697266 9.89193 1.10742 10.9219 1.92773C11.9609 2.73893 12.7311 3.91471 13.2324 5.45508C13.7337 6.98633 13.9844 8.83659 13.9844 11.0059ZM4.20898 11.0059C4.20898 12.528 4.29102 13.7995 4.45508 14.8203C4.62826 15.832 4.91536 16.5931 5.31641 17.1035C5.71745 17.6139 6.27344 17.8691 6.98438 17.8691C7.6862 17.8691 8.23763 17.6185 8.63867 17.1172C9.04883 16.6068 9.34049 15.8457 9.51367 14.834C9.68685 13.8132 9.77344 12.5371 9.77344 11.0059C9.77344 9.48372 9.68685 8.21224 9.51367 7.19141C9.34049 6.17057 9.04883 5.40495 8.63867 4.89453C8.23763 4.375 7.6862 4.11523 6.98438 4.11523C6.27344 4.11523 5.71745 4.375 5.31641 4.89453C4.91536 5.40495 4.62826 6.17057 4.45508 7.19141C4.29102 8.21224 4.20898 9.48372 4.20898 11.0059ZM26.5898 21H22.3652V9.43359C22.3652 9.11458 22.3698 8.72266 22.3789 8.25781C22.388 7.78385 22.4017 7.30078 22.4199 6.80859C22.4382 6.30729 22.4564 5.85612 22.4746 5.45508C22.3743 5.57357 22.1693 5.77865 21.8594 6.07031C21.5586 6.35286 21.276 6.60807 21.0117 6.83594L18.7148 8.68164L16.6777 6.13867L23.1172 1.01172H26.5898V21Z"/>
</mask>
<path d="M13.6016 15.3262L12.6212 15.1287L12.6199 15.1355L13.6016 15.3262ZM12.3984 18.5527L11.5519 18.0204L11.548 18.0267L12.3984 18.5527ZM3.0332 20.0566L2.41019 20.8389L2.41446 20.8422L3.0332 20.0566ZM0.75 16.5293L-0.202556 16.8337L-0.202029 16.8353L0.75 16.5293ZM0.681641 5.46875L-0.277279 5.18505L-0.278359 5.18875L0.681641 5.46875ZM2.89648 1.92773L2.27009 1.14823L2.89648 1.92773ZM10.9219 1.92773L10.2988 2.70999L10.3065 2.71597L10.9219 1.92773ZM13.2324 5.45508L12.2815 5.76455L12.2821 5.76621L13.2324 5.45508ZM4.45508 14.8203L3.4677 14.979L3.46941 14.989L4.45508 14.8203ZM5.31641 17.1035L6.10272 16.4857L5.31641 17.1035ZM8.63867 17.1172L7.85916 16.4908L7.8578 16.4925L8.63867 17.1172ZM9.51367 14.834L10.4993 15.0027L10.4996 15.0012L9.51367 14.834ZM9.51367 7.19141L8.52776 7.35866L9.51367 7.19141ZM8.63867 4.89453L7.84708 5.50558L7.85305 5.51331L7.85916 5.52092L8.63867 4.89453ZM5.31641 4.89453L6.10275 5.51238L6.108 5.50558L5.31641 4.89453ZM4.45508 7.19141L3.46913 7.02415L3.46775 7.03273L4.45508 7.19141ZM12.9844 11.0059C12.9844 12.5684 12.8606 13.9404 12.6213 15.1287L14.5819 15.5236C14.8529 14.178 14.9844 12.6699 14.9844 11.0059H12.9844ZM12.6199 15.1355C12.392 16.3088 12.0287 17.2623 11.5519 18.0204L13.245 19.0851C13.8802 18.075 14.3189 16.8774 14.5832 15.5169L12.6199 15.1355ZM11.548 18.0267C11.0926 18.7628 10.5048 19.3102 9.77664 19.6891L10.6999 21.4632C11.7582 20.9125 12.6105 20.1109 13.2489 19.0788L11.548 18.0267ZM9.77664 19.6891C9.05901 20.0626 8.14159 20.2734 6.98438 20.2734V22.2734C8.37924 22.2734 9.63109 22.0195 10.6999 21.4632L9.77664 19.6891ZM6.98438 20.2734C5.55307 20.2734 4.46889 19.9145 3.65195 19.271L2.41446 20.8422C3.65741 21.8212 5.20735 22.2734 6.98438 22.2734V20.2734ZM3.65621 19.2744C2.81168 18.6018 2.14737 17.6088 1.70203 16.2233L-0.202029 16.8353C0.337004 18.5123 1.19483 19.8709 2.4102 20.8389L3.65621 19.2744ZM1.70255 16.2249C1.25012 14.809 1.01172 13.0759 1.01172 11.0059H-0.988281C-0.988281 13.2197 -0.734496 15.1689 -0.202555 16.8337L1.70255 16.2249ZM1.01172 11.0059C1.01172 8.90933 1.22905 7.16333 1.64164 5.74875L-0.278359 5.18875C-0.759002 6.83667 -0.988281 8.78207 -0.988281 11.0059H1.01172ZM1.64055 5.75245C2.05176 4.36257 2.69366 3.37357 3.52288 2.70724L2.27009 1.14823C1.05764 2.12252 0.222979 3.4942 -0.277272 5.18505L1.64055 5.75245ZM3.52288 2.70724C4.31869 2.06775 5.43839 1.69727 6.98438 1.69727V-0.302734C5.12151 -0.302734 3.51595 0.147095 2.27009 1.14823L3.52288 2.70724ZM6.98438 1.69727C8.40252 1.69727 9.4811 2.05863 10.2989 2.70995L11.5449 1.14552C10.3028 0.156215 8.75633 -0.302734 6.98438 -0.302734V1.69727ZM10.3065 2.71597C11.1558 3.37903 11.8276 4.36991 12.2815 5.76455L14.1833 5.14561C13.6346 3.45952 12.7661 2.09883 11.5373 1.1395L10.3065 2.71597ZM12.2821 5.76621C12.7413 7.16904 12.9844 8.90814 12.9844 11.0059H14.9844C14.9844 8.76504 14.7261 6.80361 14.1828 5.14395L12.2821 5.76621ZM3.20898 11.0059C3.20898 12.5588 3.29233 13.8875 3.46775 14.979L5.44241 14.6616C5.28971 13.7115 5.20898 12.4972 5.20898 11.0059H3.20898ZM3.46941 14.989C3.65594 16.0788 3.98331 17.0254 4.53009 17.7213L6.10272 16.4857C5.84742 16.1608 5.60057 15.5853 5.44074 14.6516L3.46941 14.989ZM4.53009 17.7213C5.14048 18.4982 6.00006 18.8691 6.98438 18.8691V16.8691C6.54681 16.8691 6.29441 16.7297 6.10272 16.4857L4.53009 17.7213ZM6.98438 18.8691C7.95762 18.8691 8.80939 18.5046 9.41954 17.7419L7.8578 16.4925C7.66587 16.7324 7.41477 16.8691 6.98438 16.8691V18.8691ZM9.41818 17.7436C9.97877 17.046 10.3122 16.0958 10.4993 15.0027L8.52801 14.6653C8.36875 15.5956 8.11889 16.1676 7.85916 16.4908L9.41818 17.7436ZM10.4996 15.0012C10.6854 13.9058 10.7734 12.5693 10.7734 11.0059H8.77344C8.77344 12.5049 8.68827 13.7205 8.52776 14.6667L10.4996 15.0012ZM10.7734 11.0059C10.7734 9.45116 10.6854 8.11937 10.4996 7.02415L8.52776 7.35866C8.68832 8.30511 8.77344 9.51629 8.77344 11.0059H10.7734ZM10.4996 7.02415C10.3129 5.92352 9.97994 4.96722 9.41818 4.26814L7.85916 5.52092C8.11771 5.84267 8.36812 6.41762 8.52776 7.35866L10.4996 7.02415ZM9.43026 4.28348C8.82518 3.49962 7.97121 3.11523 6.98438 3.11523V5.11523C7.40119 5.11523 7.65008 5.25038 7.84708 5.50558L9.43026 4.28348ZM6.98438 3.11523C5.9933 3.11523 5.13267 3.49604 4.52482 4.28348L6.108 5.50558C6.30223 5.25396 6.55357 5.11523 6.98438 5.11523V3.11523ZM4.53009 4.27671C3.98217 4.97406 3.65532 5.92682 3.46916 7.02415L5.44099 7.35866C5.60119 6.41433 5.84856 5.83583 6.10272 5.51235L4.53009 4.27671ZM3.46775 7.03273C3.29233 8.12425 3.20898 9.45292 3.20898 11.0059H5.20898C5.20898 9.51453 5.28971 8.30023 5.44241 7.35008L3.46775 7.03273ZM26.5898 21V22H27.5898V21H26.5898ZM22.3652 21H21.3652V22H22.3652V21ZM22.3789 8.25781L23.3787 8.27742L23.3787 8.27704L22.3789 8.25781ZM22.4199 6.80859L23.4192 6.84561L23.4193 6.84493L22.4199 6.80859ZM22.4746 5.45508L23.4736 5.50049L23.6068 2.56887L21.7112 4.80914L22.4746 5.45508ZM21.8594 6.07031L22.5441 6.79916L22.5447 6.79851L21.8594 6.07031ZM21.0117 6.83594L21.6381 7.61545L21.6516 7.60463L21.6647 7.59335L21.0117 6.83594ZM18.7148 8.68164L17.9344 9.30685L18.5605 10.0885L19.3412 9.46115L18.7148 8.68164ZM16.6777 6.13867L16.0549 5.35635L15.2702 5.98108L15.8973 6.76388L16.6777 6.13867ZM23.1172 1.01172V0.0117188H22.7677L22.4943 0.229394L23.1172 1.01172ZM26.5898 1.01172H27.5898V0.0117188H26.5898V1.01172ZM26.5898 20H22.3652V22H26.5898V20ZM23.3652 21V9.43359H21.3652V21H23.3652ZM23.3652 9.43359C23.3652 9.12333 23.3697 8.73839 23.3787 8.27742L21.3791 8.23821C21.3699 8.70693 21.3652 9.10584 21.3652 9.43359H23.3652ZM23.3787 8.27704C23.3877 7.80923 23.4012 7.3321 23.4192 6.84561L21.4206 6.77158C21.4022 7.26947 21.3883 7.75847 21.3791 8.23858L23.3787 8.27704ZM23.4193 6.84493C23.4374 6.34595 23.4555 5.89787 23.4736 5.50049L21.4756 5.40967C21.4572 5.81437 21.4389 6.26864 21.4206 6.77225L23.4193 6.84493ZM21.7112 4.80914C21.6529 4.87809 21.488 5.04656 21.174 5.34211L22.5447 6.79851C22.8505 6.51073 23.0958 6.26905 23.238 6.10102L21.7112 4.80914ZM21.1747 5.34146C20.8825 5.61597 20.6106 5.86145 20.3588 6.07853L21.6647 7.59335C21.9415 7.3547 22.2347 7.08976 22.5441 6.79916L21.1747 5.34146ZM20.3853 6.05643L18.0885 7.90213L19.3412 9.46115L21.6381 7.61545L20.3853 6.05643ZM19.4953 8.05643L17.4582 5.51346L15.8973 6.76388L17.9344 9.30685L19.4953 8.05643ZM17.3006 6.921L23.7401 1.79404L22.4943 0.229394L16.0549 5.35635L17.3006 6.921ZM23.1172 2.01172H26.5898V0.0117188H23.1172V2.01172ZM25.5898 1.01172V21H27.5898V1.01172H25.5898Z" fill="#22A2FF" mask="url(#path-1-outside-1_266_5936)"/>
</svg>
