<svg width="31" height="22" viewBox="0 0 31 22" fill="none" xmlns="http://www.w3.org/2000/svg">
<mask id="path-1-outside-1_266_5945" maskUnits="userSpaceOnUse" x="-1" y="-1" width="33" height="24" fill="black">
<rect fill="white" x="-1" y="-1" width="33" height="24"/>
<path d="M13.9844 11.0059C13.9844 12.6191 13.8568 14.0592 13.6016 15.3262C13.3555 16.5931 12.9544 17.6686 12.3984 18.5527C11.8516 19.4368 11.1315 20.1113 10.2383 20.5762C9.34505 21.041 8.26042 21.2734 6.98438 21.2734C5.38021 21.2734 4.06315 20.8678 3.0332 20.0566C2.00326 19.2363 1.24219 18.0605 0.75 16.5293C0.257812 14.9889 0.0117188 13.1478 0.0117188 11.0059C0.0117188 8.8457 0.235026 7 0.681641 5.46875C1.13737 3.92839 1.87565 2.74805 2.89648 1.92773C3.91732 1.10742 5.27995 0.697266 6.98438 0.697266C8.57943 0.697266 9.89193 1.10742 10.9219 1.92773C11.9609 2.73893 12.7311 3.91471 13.2324 5.45508C13.7337 6.98633 13.9844 8.83659 13.9844 11.0059ZM4.20898 11.0059C4.20898 12.528 4.29102 13.7995 4.45508 14.8203C4.62826 15.832 4.91536 16.5931 5.31641 17.1035C5.71745 17.6139 6.27344 17.8691 6.98438 17.8691C7.6862 17.8691 8.23763 17.6185 8.63867 17.1172C9.04883 16.6068 9.34049 15.8457 9.51367 14.834C9.68685 13.8132 9.77344 12.5371 9.77344 11.0059C9.77344 9.48372 9.68685 8.21224 9.51367 7.19141C9.34049 6.17057 9.04883 5.40495 8.63867 4.89453C8.23763 4.375 7.6862 4.11523 6.98438 4.11523C6.27344 4.11523 5.71745 4.375 5.31641 4.89453C4.91536 5.40495 4.62826 6.17057 4.45508 7.19141C4.29102 8.21224 4.20898 9.48372 4.20898 11.0059ZM30.1172 21H16.1445V18.0605L21.1621 12.9883C22.1738 11.9492 22.985 11.0833 23.5957 10.3906C24.2155 9.6888 24.6621 9.05078 24.9355 8.47656C25.2181 7.90234 25.3594 7.28711 25.3594 6.63086C25.3594 5.83789 25.1361 5.24544 24.6895 4.85352C24.252 4.45247 23.6641 4.25195 22.9258 4.25195C22.151 4.25195 21.3991 4.42969 20.6699 4.78516C19.9408 5.14062 19.1797 5.64648 18.3867 6.30273L16.0898 3.58203C16.6641 3.08984 17.2702 2.625 17.9082 2.1875C18.5553 1.75 19.3027 1.39909 20.1504 1.13477C21.0072 0.861328 22.0326 0.724609 23.2266 0.724609C24.5391 0.724609 25.6647 0.961589 26.6035 1.43555C27.5514 1.90951 28.2806 2.55664 28.791 3.37695C29.3014 4.18815 29.5566 5.10872 29.5566 6.13867C29.5566 7.24154 29.3379 8.2487 28.9004 9.16016C28.4629 10.0716 27.8249 10.974 26.9863 11.8672C26.1569 12.7604 25.1543 13.7493 23.9785 14.834L21.4082 17.2539V17.4453H30.1172V21Z"/>
</mask>
<path d="M13.6016 15.3262L12.6212 15.1287L12.6199 15.1355L13.6016 15.3262ZM12.3984 18.5527L11.5519 18.0204L11.548 18.0267L12.3984 18.5527ZM3.0332 20.0566L2.41019 20.8389L2.41446 20.8422L3.0332 20.0566ZM0.75 16.5293L-0.202556 16.8337L-0.202029 16.8353L0.75 16.5293ZM0.681641 5.46875L-0.277279 5.18505L-0.278359 5.18875L0.681641 5.46875ZM2.89648 1.92773L2.27009 1.14823L2.89648 1.92773ZM10.9219 1.92773L10.2988 2.70999L10.3065 2.71597L10.9219 1.92773ZM13.2324 5.45508L12.2815 5.76455L12.2821 5.76621L13.2324 5.45508ZM4.45508 14.8203L3.4677 14.979L3.46941 14.989L4.45508 14.8203ZM5.31641 17.1035L6.10272 16.4857L5.31641 17.1035ZM8.63867 17.1172L7.85916 16.4908L7.8578 16.4925L8.63867 17.1172ZM9.51367 14.834L10.4993 15.0027L10.4996 15.0012L9.51367 14.834ZM9.51367 7.19141L8.52776 7.35866L9.51367 7.19141ZM8.63867 4.89453L7.84708 5.50558L7.85305 5.51331L7.85916 5.52092L8.63867 4.89453ZM5.31641 4.89453L6.10275 5.51238L6.108 5.50558L5.31641 4.89453ZM4.45508 7.19141L3.46913 7.02415L3.46775 7.03273L4.45508 7.19141ZM12.9844 11.0059C12.9844 12.5684 12.8606 13.9404 12.6213 15.1287L14.5819 15.5236C14.8529 14.178 14.9844 12.6699 14.9844 11.0059H12.9844ZM12.6199 15.1355C12.392 16.3088 12.0287 17.2623 11.5519 18.0204L13.245 19.0851C13.8802 18.075 14.3189 16.8774 14.5832 15.5169L12.6199 15.1355ZM11.548 18.0267C11.0926 18.7628 10.5048 19.3102 9.77664 19.6891L10.6999 21.4632C11.7582 20.9125 12.6105 20.1109 13.2489 19.0788L11.548 18.0267ZM9.77664 19.6891C9.05901 20.0626 8.14159 20.2734 6.98438 20.2734V22.2734C8.37924 22.2734 9.63109 22.0195 10.6999 21.4632L9.77664 19.6891ZM6.98438 20.2734C5.55307 20.2734 4.46889 19.9145 3.65195 19.271L2.41446 20.8422C3.65741 21.8212 5.20735 22.2734 6.98438 22.2734V20.2734ZM3.65621 19.2744C2.81168 18.6018 2.14737 17.6088 1.70203 16.2233L-0.202029 16.8353C0.337004 18.5123 1.19483 19.8709 2.4102 20.8389L3.65621 19.2744ZM1.70255 16.2249C1.25012 14.809 1.01172 13.0759 1.01172 11.0059H-0.988281C-0.988281 13.2197 -0.734496 15.1689 -0.202555 16.8337L1.70255 16.2249ZM1.01172 11.0059C1.01172 8.90933 1.22905 7.16333 1.64164 5.74875L-0.278359 5.18875C-0.759002 6.83667 -0.988281 8.78207 -0.988281 11.0059H1.01172ZM1.64055 5.75245C2.05176 4.36257 2.69366 3.37357 3.52288 2.70724L2.27009 1.14823C1.05764 2.12252 0.222979 3.4942 -0.277272 5.18505L1.64055 5.75245ZM3.52288 2.70724C4.31869 2.06775 5.43839 1.69727 6.98438 1.69727V-0.302734C5.12151 -0.302734 3.51595 0.147095 2.27009 1.14823L3.52288 2.70724ZM6.98438 1.69727C8.40252 1.69727 9.4811 2.05863 10.2989 2.70995L11.5449 1.14552C10.3028 0.156215 8.75633 -0.302734 6.98438 -0.302734V1.69727ZM10.3065 2.71597C11.1558 3.37903 11.8276 4.36991 12.2815 5.76455L14.1833 5.14561C13.6346 3.45952 12.7661 2.09883 11.5373 1.1395L10.3065 2.71597ZM12.2821 5.76621C12.7413 7.16904 12.9844 8.90814 12.9844 11.0059H14.9844C14.9844 8.76504 14.7261 6.80361 14.1828 5.14395L12.2821 5.76621ZM3.20898 11.0059C3.20898 12.5588 3.29233 13.8875 3.46775 14.979L5.44241 14.6616C5.28971 13.7115 5.20898 12.4972 5.20898 11.0059H3.20898ZM3.46941 14.989C3.65594 16.0788 3.98331 17.0254 4.53009 17.7213L6.10272 16.4857C5.84742 16.1608 5.60057 15.5853 5.44074 14.6516L3.46941 14.989ZM4.53009 17.7213C5.14048 18.4982 6.00006 18.8691 6.98438 18.8691V16.8691C6.54681 16.8691 6.29441 16.7297 6.10272 16.4857L4.53009 17.7213ZM6.98438 18.8691C7.95762 18.8691 8.80939 18.5046 9.41954 17.7419L7.8578 16.4925C7.66587 16.7324 7.41477 16.8691 6.98438 16.8691V18.8691ZM9.41818 17.7436C9.97877 17.046 10.3122 16.0958 10.4993 15.0027L8.52801 14.6653C8.36875 15.5956 8.11889 16.1676 7.85916 16.4908L9.41818 17.7436ZM10.4996 15.0012C10.6854 13.9058 10.7734 12.5693 10.7734 11.0059H8.77344C8.77344 12.5049 8.68827 13.7205 8.52776 14.6667L10.4996 15.0012ZM10.7734 11.0059C10.7734 9.45116 10.6854 8.11937 10.4996 7.02415L8.52776 7.35866C8.68832 8.30511 8.77344 9.51629 8.77344 11.0059H10.7734ZM10.4996 7.02415C10.3129 5.92352 9.97994 4.96722 9.41818 4.26814L7.85916 5.52092C8.11771 5.84267 8.36812 6.41762 8.52776 7.35866L10.4996 7.02415ZM9.43026 4.28348C8.82518 3.49962 7.97121 3.11523 6.98438 3.11523V5.11523C7.40119 5.11523 7.65008 5.25038 7.84708 5.50558L9.43026 4.28348ZM6.98438 3.11523C5.9933 3.11523 5.13267 3.49604 4.52482 4.28348L6.108 5.50558C6.30223 5.25396 6.55357 5.11523 6.98438 5.11523V3.11523ZM4.53009 4.27671C3.98217 4.97406 3.65532 5.92682 3.46916 7.02415L5.44099 7.35866C5.60119 6.41433 5.84856 5.83583 6.10272 5.51235L4.53009 4.27671ZM3.46775 7.03273C3.29233 8.12425 3.20898 9.45292 3.20898 11.0059H5.20898C5.20898 9.51453 5.28971 8.30023 5.44241 7.35008L3.46775 7.03273ZM30.1172 21V22H31.1172V21H30.1172ZM16.1445 21H15.1445V22H16.1445V21ZM16.1445 18.0605L15.4336 17.3573L15.1445 17.6495V18.0605H16.1445ZM21.1621 12.9883L21.8731 13.6916L21.8786 13.6859L21.1621 12.9883ZM23.5957 10.3906L22.8461 9.72868L22.8456 9.72933L23.5957 10.3906ZM24.9355 8.47656L24.0382 8.03502L24.0327 8.04663L24.9355 8.47656ZM24.6895 4.85352L24.0137 5.59067L24.0217 5.59799L24.0299 5.60514L24.6895 4.85352ZM18.3867 6.30273L17.6226 6.94782L18.2614 7.70448L19.0243 7.07313L18.3867 6.30273ZM16.0898 3.58203L15.4391 2.82277L14.6855 3.46871L15.3257 4.22711L16.0898 3.58203ZM17.9082 2.1875L17.3481 1.35904L17.3427 1.36277L17.9082 2.1875ZM20.1504 1.13477L20.4481 2.08945L20.4544 2.08743L20.1504 1.13477ZM26.6035 1.43555L26.1528 2.32824L26.1563 2.32997L26.6035 1.43555ZM28.791 3.37695L27.9419 3.90526L27.9446 3.90951L28.791 3.37695ZM26.9863 11.8672L26.2572 11.1827L26.2535 11.1867L26.9863 11.8672ZM23.9785 14.834L23.3004 14.0989L23.293 14.1059L23.9785 14.834ZM21.4082 17.2539L20.7227 16.5258L20.4082 16.8219V17.2539H21.4082ZM21.4082 17.4453H20.4082V18.4453H21.4082V17.4453ZM30.1172 17.4453H31.1172V16.4453H30.1172V17.4453ZM30.1172 20H16.1445V22H30.1172V20ZM17.1445 21V18.0605H15.1445V21H17.1445ZM16.8555 18.7638L21.873 13.6915L20.4512 12.285L15.4336 17.3573L16.8555 18.7638ZM21.8786 13.6859C22.8961 12.6408 23.7199 11.7619 24.3458 11.0519L22.8456 9.72933C22.2501 10.4048 21.4515 11.2576 20.4456 12.2907L21.8786 13.6859ZM24.3453 11.0526C25.0005 10.3106 25.5109 9.59429 25.8384 8.9065L24.0327 8.04663C23.8133 8.50727 23.4305 9.06704 22.8461 9.72868L24.3453 11.0526ZM25.8328 8.91807C26.1847 8.20292 26.3594 7.43618 26.3594 6.63086H24.3594C24.3594 7.13804 24.2515 7.60177 24.0383 8.03506L25.8328 8.91807ZM26.3594 6.63086C26.3594 5.65161 26.0782 4.74173 25.349 4.10189L24.0299 5.60514C24.194 5.74915 24.3594 6.02417 24.3594 6.63086H26.3594ZM25.3652 4.11636C24.7011 3.50763 23.8505 3.25195 22.9258 3.25195V5.25195C23.4776 5.25195 23.8028 5.39731 24.0137 5.59067L25.3652 4.11636ZM22.9258 3.25195C21.992 3.25195 21.0908 3.46749 20.2317 3.88628L21.1081 5.68403C21.7074 5.39189 22.3101 5.25195 22.9258 5.25195V3.25195ZM20.2317 3.88628C19.4152 4.28435 18.5877 4.83834 17.7492 5.53234L19.0243 7.07313C19.7716 6.45463 20.4663 5.9969 21.1081 5.68403L20.2317 3.88628ZM19.1508 5.65765L16.854 2.93695L15.3257 4.22711L17.6226 6.94782L19.1508 5.65765ZM16.7406 4.34129C17.287 3.87296 17.8646 3.42991 18.4737 3.01223L17.3427 1.36277C16.6758 1.82009 16.0411 2.30672 15.4391 2.82277L16.7406 4.34129ZM18.4683 3.01594C19.0244 2.63997 19.6811 2.3286 20.4481 2.08943L19.8527 0.180103C18.9244 0.469576 18.0863 0.860031 17.3481 1.35906L18.4683 3.01594ZM20.4544 2.08743C21.1867 1.85372 22.1041 1.72461 23.2266 1.72461V-0.275391C21.961 -0.275391 20.8276 -0.13106 19.8463 0.182106L20.4544 2.08743ZM23.2266 1.72461C24.4205 1.72461 25.3842 1.94016 26.1528 2.32823L27.0542 0.54286C25.9453 -0.0169821 24.6576 -0.275391 23.2266 -0.275391V1.72461ZM26.1563 2.32997C26.9556 2.72962 27.5384 3.25675 27.942 3.90526L29.6401 2.84865C29.0228 1.85653 28.1473 1.08939 27.0507 0.54112L26.1563 2.32997ZM27.9446 3.90951C28.3472 4.54924 28.5566 5.28251 28.5566 6.13867H30.5566C30.5566 4.93493 30.2557 3.82706 29.6374 2.84439L27.9446 3.90951ZM28.5566 6.13867C28.5566 7.10555 28.3658 7.96294 27.9989 8.72742L29.8019 9.59289C30.31 8.53446 30.5566 7.37752 30.5566 6.13867H28.5566ZM27.9989 8.72742C27.6139 9.52954 27.0401 10.3489 26.2573 11.1828L27.7154 12.5516C28.6097 11.599 29.3119 10.6137 29.8019 9.59289L27.9989 8.72742ZM26.2535 11.1867C25.4461 12.0563 24.4628 13.0268 23.3005 14.099L24.6566 15.569C25.8458 14.4719 26.8677 13.4645 27.7191 12.5476L26.2535 11.1867ZM23.293 14.1059L20.7227 16.5258L22.0937 17.982L24.664 15.5621L23.293 14.1059ZM20.4082 17.2539V17.4453H22.4082V17.2539H20.4082ZM21.4082 18.4453H30.1172V16.4453H21.4082V18.4453ZM29.1172 17.4453V21H31.1172V17.4453H29.1172Z" fill="#22A2FF" mask="url(#path-1-outside-1_266_5945)"/>
</svg>
